<?xml version="1.0" encoding="utf-8"?>
<!-- Generator: Adobe Illustrator 27.5.0, SVG Export Plug-In . SVG Version: 6.00 Build 0)  -->
<svg version="1.1" id="Ñëîé_1" xmlns="http://www.w3.org/2000/svg" xmlns:xlink="http://www.w3.org/1999/xlink" x="0px" y="0px"
	 viewBox="0 0 350 350" style="enable-background:new 0 0 350 350;" xml:space="preserve">
<g>
	<path style="fill:#48A8E0;" d="M93.237,214.508c0,0-28.851,13.798-3.303,35.017c-2.062,2.491-6.277,19.656-6.277,19.656
		s-40.798-33.035,5.617-59.299L93.237,214.508z"/>
	<g>
		<g>
			<g>
				<path style="fill:#FF9C4B;" d="M232.4,178.975c0,0,10.047-14.614,10.104-17.241c0.053-2.624-5.375-5.322-7.383-3.571
					c-2.004,1.749-12.799,20.751-12.799,20.751l-10.668,12.907l-4.189,13.379l16.234,12.476l7.545-6.039l13.377-13.379l1.867-7.557
					L232.4,178.975z"/>
			</g>
			<g>
				<path style="fill:#FFE9D0;" d="M337.912,133.145c2.772,2.751,2.785,7.219,0.033,9.98l-80.611,81.129
					c-2.748,2.772-7.221,2.782-9.99,0.036l-61.596-61.205c-2.766-2.75-2.779-7.226-0.029-9.992l80.619-81.126
					c2.748-2.757,7.215-2.777,9.98-0.029L337.912,133.145z"/>
				<path style="opacity:0.2;" d="M337.922,133.246c-1.135-0.599-3.24-1.83-4.563-1.889l-83.074-2.612
					c-4.58-0.186-8.113,3.365-7.891,7.939l3.133,83.063c0.066,1.313,1.318,3.415,1.922,4.544c3.016,2.523,7.293,2.57,9.885-0.036
					l80.611-81.129C340.533,140.529,340.453,136.251,337.922,133.246z"/>
				<path style="fill:#FFE9D0;" d="M338.342,133.667c-1.057-0.525-2.236-0.832-3.494-0.829l-80.199,0.248
					c-4.369,0.015-7.904,3.572-7.885,7.944l0.256,80.195c0.008,1.256,0.326,2.43,0.852,3.486c2.779,2.288,6.871,2.148,9.463-0.458
					l80.611-81.129C340.533,140.529,340.645,136.436,338.342,133.667z"/>
				<path style="fill:#FFF3E6;" d="M251.963,226.134l-0.258-80.195c-0.014-4.367,3.521-7.918,7.894-7.934l80.188-0.258
					c0.059,0.005,0.1,0.02,0.156,0.02c-0.092-1.458-0.609-2.906-1.602-4.101c-1.057-0.525-2.236-0.832-3.494-0.829l-80.199,0.248
					c-4.369,0.015-7.904,3.572-7.885,7.944l0.256,80.195c0.008,1.256,0.326,2.43,0.852,3.486c1.197,0.983,2.645,1.487,4.109,1.576
					C251.98,226.233,251.963,226.189,251.963,226.134z"/>
				<polygon style="opacity:0.5;fill:#F03838;" points="313.766,109.151 307.908,110.728 313.43,116.22 319.285,114.637 				"/>
				<path style="opacity:0.5;fill:#2F769B;" d="M337.945,143.125c0.963-0.97,1.565-2.146,1.855-3.383l-7.83-2.06
					c-0.02,1.603-0.598,3.148-1.773,4.344l-1.699,1.714l7.012,1.835L337.945,143.125z"/>
				<polygon style="opacity:0.5;fill:#2F769B;" points="323.209,118.53 317.35,120.107 322.877,125.599 328.728,124.016 				"/>
				<polygon style="opacity:0.5;fill:#F03838;" points="325.244,155.914 330.732,150.395 323.709,148.545 318.228,154.068 				"/>
				<polygon style="opacity:0.5;fill:#2F769B;" points="314.975,166.242 320.459,160.725 313.445,158.878 307.961,164.403 				"/>
				<polygon style="opacity:0.5;fill:#F03838;" points="305.592,175.689 311.084,170.166 304.063,168.319 298.58,173.843 				"/>
				<path style="opacity:0.5;fill:#F03838;" d="M281.52,77.107l-5.201-5.169c-0.119-0.115-0.246-0.203-0.363-0.31l-5.811,1.576
					l5.516,5.483L281.52,77.107z"/>
				<path style="opacity:0.5;fill:#F03838;" d="M329.863,132.542c0.781,0.776,1.326,1.693,1.682,2.642l6.586-1.778
					c-0.078-0.08-0.131-0.175-0.219-0.261l-5.266-5.231l-5.855,1.582L329.863,132.542z"/>
				<polygon style="opacity:0.5;fill:#2F769B;" points="304.324,99.768 298.467,101.348 303.984,106.832 309.838,105.249 				"/>
				<polygon style="opacity:0.5;fill:#2F769B;" points="285.434,80.999 279.588,82.586 285.105,88.065 290.957,86.485 				"/>
				<polygon style="opacity:0.5;fill:#F03838;" points="294.883,90.385 289.025,91.969 294.545,97.448 300.398,95.869 				"/>
				<polygon style="opacity:0.5;fill:#2F769B;" points="235.521,205.136 233.979,211.006 239.502,216.492 241.045,210.617 				"/>
				<path style="opacity:0.5;fill:#F03838;" d="M246.697,216.239l-1.756-1.739l-1.701,5.707l4.104,4.083
					c0.58,0.57,1.24,0.992,1.934,1.328l2.164-7.288C249.75,218.268,248.033,217.568,246.697,216.239z"/>
				<path style="opacity:0.5;fill:#2F769B;" d="M258.619,222.959l5.404-5.439l-5.811-3.056l-2.041,2.055
					c-1.102,1.11-2.547,1.675-4.035,1.777l-1.84,0.227L258.619,222.959z"/>
				<polygon style="opacity:0.5;fill:#F03838;" points="226.082,195.755 224.541,201.623 230.059,207.107 231.604,201.238 				"/>
				<polygon style="opacity:0.5;fill:#F03838;" points="186.766,164.094 192.295,169.579 193.832,163.714 188.313,158.223 				"/>
				<polygon style="opacity:0.5;fill:#2F769B;" points="216.643,186.373 215.098,192.24 220.619,197.729 222.154,191.852 				"/>
				<polygon style="opacity:0.5;fill:#F03838;" points="207.195,176.986 205.656,182.861 211.176,188.348 212.709,182.47 				"/>
				<polygon style="opacity:0.5;fill:#2F769B;" points="277.445,204.01 282.93,198.492 275.91,196.649 270.43,202.169 				"/>
				<polygon style="opacity:0.5;fill:#F03838;" points="286.828,194.57 292.316,189.049 285.299,187.201 279.809,192.722 				"/>
				<polygon style="opacity:0.5;fill:#2F769B;" points="296.209,185.126 301.697,179.604 294.682,177.764 289.193,183.284 				"/>
				<polygon style="opacity:0.5;fill:#2F769B;" points="197.752,167.605 196.209,173.473 201.73,178.964 203.275,173.095 				"/>
				<polygon style="opacity:0.5;fill:#F03838;" points="268.06,213.453 273.557,207.928 266.535,206.084 261.049,211.612 				"/>
				<path style="opacity:0.2;" d="M184.563,154.7c-0.025,0.047-0.049,0.1-0.076,0.146c-0.281,0.592-0.486,1.229-0.59,1.88
					c0.887,3.697,5.494,7.849,9.379,8.004l79.641,2.01c4.406,0.17,7.815-3.254,7.611-7.661l-2.508-79.627
					c-0.188-3.877-4.361-8.467-8.064-9.328c-0.65,0.11-1.291,0.317-1.887,0.603c-0.039,0.026-0.092,0.051-0.139,0.076
					c-0.232,0.122-0.455,0.261-0.666,0.41c-0.324,0.228-0.639,0.47-0.926,0.755l-80.619,81.126
					c-0.289,0.297-0.525,0.606-0.752,0.932C184.816,154.243,184.678,154.472,184.563,154.7z"/>
				<path style="fill:#FFE9D0;" d="M269.881,70.05c-1.305,0.272-2.537,0.908-3.543,1.917l-80.619,81.126
					c-1,1.017-1.635,2.263-1.896,3.561c0.693,3.51,3.797,6.156,7.506,6.143l77.373-0.252c4.215-0.011,7.617-3.442,7.609-7.656
					l-0.238-77.37C276.055,73.804,273.391,70.718,269.881,70.05z"/>
				<path style="fill:#FFF3E6;" d="M270.986,72.473l0.246,77.368c0.016,4.222-3.395,7.648-7.609,7.664l-77.369,0.243
					c-0.781,0.006-1.516-0.132-2.217-0.348c0.963,3.126,3.854,5.407,7.291,5.397l77.373-0.252c4.215-0.011,7.617-3.442,7.609-7.656
					l-0.238-77.37c-0.02-3.444-2.316-6.318-5.445-7.258C270.848,70.966,270.986,71.702,270.986,72.473z"/>
			</g>
			<path style="fill:#FF9C4B;" d="M203.252,206.615c0,0,4.873-15.829,7.518-18.587c2.643-2.761,7.91-5.773,10.727-6.882
				c3.871-1.519,4.563-4.148,6.961-3.866c1.816,0.212,4.52,4.528,2.236,6.566c-2.297,2.053-6.344,4.195-7.045,4.855
				c-0.701,0.662-2.889,5.789-2.889,5.789s3.338,6.391,3.193,11.724c-0.145,5.33-6.699,7.132-6.699,7.132L203.252,206.615z"/>
			<path style="fill:#48A8E0;" d="M136.973,209.676c0,0,21.582,49.416,90.992,11.077c-5.07-5.082-22.93-18.253-22.93-18.253
				c-20.945,24.587-36.48,30.423-63.402,1.867L136.973,209.676z"/>
		</g>
		<path style="opacity:0.1;" d="M164.99,318.402c-0.229,6.193-21.762,10.422-48.088,9.447c-26.328-0.979-47.483-6.79-47.253-12.987
			c0.231-6.197,21.761-10.424,48.086-9.449C144.063,306.393,165.219,312.206,164.99,318.402z"/>
		<path style="fill:#755236;" d="M89.332,302.705c-6.821,11.924,21.394,17.002,27.144,16.983
			c6.259-0.014-14.466-17.512-14.466-17.512L89.332,302.705z"/>
		<path style="fill:#755236;" d="M125.689,303.822c-5.36,12.647,23.225,15.3,28.93,14.601c6.211-0.763-16.438-15.681-16.438-15.681
			L125.689,303.822z"/>
		<path style="fill:#5D7F8C;" d="M129.012,270.241l-2.955,33.526l13.193,0.441l6.506-37.506l2.777-9.86l-54.282-0.514
			c0,0,0.215,6.821,0.45,11.351l-5.428,35.544l14.703,0.44l7.207-33.824C113.41,270.139,129.012,270.241,129.012,270.241z"/>
		<polygon style="fill:#48A8E0;" points="92.203,186.516 86.057,263.441 158.742,263.479 140.762,188.263 		"/>
		<g>
			<g>
				<path style="fill:#FF9C4B;" d="M174.42,121.446c8.416-4.648,20.061-1.033,20.535,9.431c0.473,10.369-8.752,13.18-16.775,10.863
					L174.42,121.446z"/>
				<path style="opacity:0.2;" d="M185.387,134.866c-4.939,4.003-12.693-3.861-5.666-6.826
					C183.68,126.373,189.705,131.367,185.387,134.866z"/>
			</g>
			<g>
				<polygon style="fill:#755236;" points="206.59,81.343 212.104,78.102 214.113,80.35 209.186,84.7 				"/>
				<path style="fill:#FFBA87;" d="M209.861,84.107l-16.426,28.652c2.846-5.463-0.289-7.665-5.002-5.484
					c0,0,9.213-12.275,7.074-15.105c-2.139-2.821-15.52,0.465-20.746,3.361c5.094-5.125,3.709-9.841,0.322-9.351l32.357-5.338
					C207.768,81.764,208.459,83.119,209.861,84.107z"/>
				<path style="fill:#755236;" d="M174.762,95.532c5.227-2.896,18.607-6.182,20.746-3.361c2.139,2.83-7.074,15.105-7.074,15.105
					c4.707-2.175,7.832,0.01,5.018,5.45l-22.379,15.122l-18.445-26.327l22.725-15.368C178.545,85.943,179.721,90.542,174.762,95.532
					z"/>
				<path style="opacity:0.3;" d="M188.434,107.275c4.707-2.175,7.832,0.01,5.018,5.45l-22.379,15.122l-4.219-6.016l21.59-14.563
					C188.434,107.271,188.434,107.275,188.434,107.275z"/>
				<path style="opacity:0.15;" d="M174.762,95.532c5.227-2.896,18.607-6.182,20.746-3.361c2.104,2.781-6.779,14.71-7.064,15.097
					l-21.59,14.563l-10.016-14.298l17.93-12.001C174.768,95.532,174.766,95.533,174.762,95.532z"/>
				<path style="opacity:0.12;fill:#FFFFFF;" d="M200.586,85.2l-20.336,6.452l-5.266,3.763c-0.078,0.042-0.152,0.082-0.223,0.117
					c5.094-5.125,3.709-9.841,0.322-9.351l32.381-5.342l0.063,0.084L200.586,85.2z"/>
				<path style="opacity:0.08;" d="M190.533,105.425l12.859-16.908c0,0,4.449-3.114,6.459-4.562l0.063,0.08l-16.479,28.724
					c2.834-5.438-0.256-7.644-4.938-5.509L190.533,105.425z"/>
				<path style="opacity:0.11;" d="M166.816,121.779l21.748-14.682c0.127-0.171,0.338-0.46,0.609-0.844l-22.557,15.245
					L166.816,121.779z M156.678,107.643l0.199,0.284l19.805-13.322c-0.711,0.311-1.359,0.619-1.92,0.926
					c0.004,0.002,0.006,0,0.006,0L156.678,107.643z"/>
				<path style="fill:#DF2000;" d="M165.375,131.857c1.195-0.829,1.479-2.475,0.635-3.675l-15.396-21.98
					c-0.836-1.197-2.484-1.497-3.674-0.658l-16.744,11.729c-1.189,0.836-1.477,2.48-0.635,3.683l15.395,21.973
					c0.842,1.198,2.486,1.495,3.678,0.661L165.375,131.857z"/>
				<path style="opacity:0.14;fill:#FFFFFF;" d="M155.436,119.074c1.127-0.789,1.395-2.346,0.6-3.481l-6.027-8.606
					c-0.793-1.133-2.354-1.414-3.479-0.624l-15.85,11.104c-1.129,0.792-1.396,2.351-0.602,3.487l6.025,8.597
					c0.795,1.138,2.357,1.417,3.477,0.632L155.436,119.074z"/>
				<path style="opacity:0.14;fill:#FFFFFF;" d="M150.965,113.456c1.074-0.756,1.334-2.245,0.568-3.33l-1.836-2.625
					c-0.762-1.085-2.248-1.353-3.328-0.603l-15.137,10.609c-1.07,0.751-1.332,2.24-0.57,3.324l1.84,2.627
					c0.76,1.079,2.246,1.353,3.322,0.599L150.965,113.456z"/>
				
					<rect x="149.227" y="102.018" transform="matrix(0.819 -0.5737 0.5737 0.819 -39.5049 111.3532)" style="fill:#969696;" width="15.083" height="32.567"/>
				
					<rect x="143.939" y="105.002" transform="matrix(0.8193 -0.5734 0.5734 0.8193 -36.1299 106.8631)" style="opacity:0.14;fill:#FFFFFF;" width="15.08" height="11.503"/>
				
					<rect x="142.964" y="106.709" transform="matrix(0.819 -0.5738 0.5738 0.819 -35.51 106.162)" style="opacity:0.14;fill:#FFFFFF;" width="15.084" height="5.306"/>
				
					<rect x="154.954" y="120.725" transform="matrix(0.8191 -0.5737 0.5737 0.8191 -43.1584 116.1011)" style="opacity:0.11;" width="15.082" height="11.504"/>
				
					<rect x="155.931" y="125.217" transform="matrix(0.8192 -0.5735 0.5735 0.8192 -43.7775 116.8724)" style="opacity:0.11;" width="15.082" height="5.301"/>
				<path style="opacity:0.31;" d="M161.551,134.833c-0.016-0.016-0.025-0.028-0.039-0.041l-18.621-26.585
					c-0.01-0.013-0.012-0.031-0.023-0.044l3.965-2.778c0.012,0.013,0.023,0.023,0.037,0.038l18.623,26.584
					c0.004,0.019,0.01,0.031,0.021,0.047L161.551,134.833z"/>
				<path style="fill:#969696;" d="M164.959,133.992c0.592-0.413,0.734-1.236,0.316-1.833l-18.621-26.587
					c-0.424-0.598-1.244-0.746-1.836-0.33l-1.826,1.278c-0.592,0.413-0.732,1.238-0.314,1.837l18.623,26.585
					c0.418,0.599,1.242,0.748,1.83,0.333L164.959,133.992z"/>
				<path style="opacity:0.47;fill:#FFFFFF;" d="M163.773,134.825c0.236-0.165,0.092-0.795-0.326-1.386l-18.619-26.586
					c-0.422-0.599-0.957-0.947-1.195-0.779l-0.742,0.521c-0.242,0.166-0.098,0.79,0.322,1.387l18.619,26.583
					c0.426,0.599,0.959,0.952,1.203,0.779L163.773,134.825z"/>
				
					<rect x="147.375" y="105.574" transform="matrix(0.8189 -0.5739 0.5739 0.8189 -38.4695 106.6624)" style="opacity:0.14;fill:#FFFFFF;" width="4.852" height="17.446"/>
				
					<rect x="147.372" y="106.718" transform="matrix(0.8192 -0.5735 0.5735 0.8192 -38.4674 106.5747)" style="opacity:0.14;fill:#FFFFFF;" width="4.855" height="15.161"/>
				<path style="opacity:0.31;" d="M166.918,131.073c-0.008-0.018-0.021-0.026-0.035-0.042l-18.621-26.587
					c-0.014-0.01-0.016-0.031-0.025-0.043l3.967-2.78c0.008,0.014,0.027,0.025,0.039,0.039l18.619,26.588
					c0.012,0.013,0.018,0.028,0.027,0.043L166.918,131.073z"/>
				<path style="fill:#969696;" d="M170.334,130.226c0.584-0.41,0.732-1.231,0.313-1.83l-18.619-26.584
					c-0.422-0.599-1.244-0.748-1.838-0.335l-1.83,1.284c-0.59,0.413-0.727,1.234-0.313,1.836l18.625,26.582
					c0.42,0.599,1.238,0.749,1.836,0.331L170.334,130.226z"/>
				<path style="opacity:0.47;fill:#FFFFFF;" d="M169.145,131.068c0.242-0.173,0.092-0.795-0.326-1.394l-18.621-26.585
					c-0.418-0.6-0.955-0.946-1.193-0.778l-0.742,0.521c-0.238,0.164-0.102,0.789,0.322,1.385l18.625,26.587
					c0.42,0.599,0.953,0.947,1.191,0.78L169.145,131.068z"/>
				
					<rect x="152.746" y="101.812" transform="matrix(0.8189 -0.5739 0.5739 0.8189 -35.3383 109.0646)" style="opacity:0.14;fill:#FFFFFF;" width="4.849" height="17.446"/>
				
					<rect x="152.746" y="102.953" transform="matrix(0.8189 -0.574 0.574 0.8189 -35.3391 109.0852)" style="opacity:0.14;fill:#FFFFFF;" width="4.852" height="15.166"/>
				<path style="opacity:0.29;fill:#FFFFFF;" d="M132.891,119.536c0.301-1.453,1.273-2.478,0.602-2.617
					c-0.676-0.142-2.266,0.754-2.564,2.207c-0.301,1.445,0.795,2.905,1.465,3.043C133.068,122.308,132.586,120.981,132.891,119.536z
					"/>
			</g>
			<path style="fill:#FFD8A2;" d="M156.893,88.023c-5.246,0.027-15.242,4.727-13.152,11.036c1.92,5.775,13.434,6.932,17.145,11.76
				c5.902,7.665,8.918,17.204,12.67,25.992c2.029-12.977,4.816-26.547-2.055-39.177C168.357,91.858,163.455,87.987,156.893,88.023z"
				/>
			<path style="fill:#E8C493;" d="M156.893,88.023c-5.246,0.027-15.242,4.727-13.152,11.036c1.406,4.229,6.314,4.854,9.555,6.973
				c3.164,2.069,5.805,6.237,7.916,9.47c2.039,3.138,5.941,13.437,9.889,14.081c5.293,0.875,0.867-7.436,0.15-9.547
				c-1.533-4.503-3.732-8.762-4.912-13.391c-1.447-5.744-0.043-8.209,2.17-13.286C165.533,90.031,161.66,87.992,156.893,88.023z"/>
			<g>
				<path style="fill:#FF9C4B;" d="M44.988,168.375c-9.613,0.212-17.862,9.194-13.016,18.476c4.813,9.204,14.201,6.991,19.966,0.954
					L44.988,168.375z"/>
				<path style="opacity:0.2;" d="M42.255,185.488c6.278,0.98,9.027-9.721,1.463-8.746C39.459,177.29,36.754,184.637,42.255,185.488
					z"/>
			</g>
			<path style="fill:#FF9C4B;" d="M177.717,130.562c9.451,35.058-13.678,71.794-51.676,82.044
				c-37.996,10.249-76.466-9.863-85.92-44.929c-9.459-35.061,13.673-71.796,51.669-82.042
				C129.785,75.385,168.25,95.498,177.717,130.562z"/>
			<path style="fill:#F09346;" d="M148.885,93.033c-6.85,2.237-13.693,4.471-20.547,6.705c-2.182,0.714-4.359,1.424-6.542,2.135
				L59.48,126.084c-2.092,0.949-4.182,1.897-6.277,2.844c-4.271,1.938-8.546,3.874-12.816,5.812
				c-2.986,10.551-3.265,21.825-0.266,32.937c0.005,0.024,0.007,0.043,0.014,0.065l1.979,2.063c0,0-7.908-30.577,15.341-34.843
				c23.248-4.263,75.24,8.954,97.021-27.063c-6.215,4.202-17.752,2.63-17.752,2.63c3.369-1.585,13.271-6.218,20.32-11.756
				C154.479,96.669,151.752,94.75,148.885,93.033z"/>
			<g style="opacity:0.3;">
				<path style="opacity:0;fill:#E78D44;" d="M77.533,175.178c2.645,3.502,0.989,9.196-3.695,12.737
					c-4.669,3.553-10.606,3.589-13.261,0.089c-2.638-3.488-0.98-9.191,3.698-12.733C68.962,171.731,74.887,171.685,77.533,175.178z"
					/>
				<path style="opacity:0.0035;fill:#E78C44;" d="M77.497,175.205c2.633,3.487,0.985,9.157-3.68,12.684
					c-4.649,3.537-10.56,3.573-13.204,0.088c-2.626-3.474-0.977-9.152,3.683-12.679C68.963,171.773,74.862,171.727,77.497,175.205z"
					/>
				<path style="opacity:0.0071;fill:#E78B43;" d="M77.461,175.232c2.622,3.472,0.98,9.118-3.664,12.629
					c-4.629,3.523-10.515,3.559-13.148,0.088c-2.615-3.458-0.972-9.113,3.667-12.625C68.963,171.815,74.837,171.769,77.461,175.232z
					"/>
				<path style="opacity:0.0106;fill:#E88A43;" d="M77.425,175.26c2.61,3.457,0.977,9.079-3.648,12.575
					c-4.609,3.507-10.47,3.542-13.091,0.087c-2.604-3.443-0.968-9.074,3.651-12.57C68.964,171.857,74.813,171.811,77.425,175.26z"/>
				<path style="opacity:0.0142;fill:#E88942;" d="M77.389,175.287c2.599,3.442,0.972,9.04-3.633,12.521
					c-4.589,3.492-10.425,3.527-13.035,0.087c-2.593-3.429-0.964-9.035,3.635-12.516C68.964,171.899,74.788,171.854,77.389,175.287z
					"/>
				<path style="opacity:0.0177;fill:#E88842;" d="M77.353,175.314c2.588,3.427,0.968,9.001-3.617,12.467
					c-4.57,3.477-10.38,3.512-12.978,0.087c-2.582-3.415-0.96-8.997,3.619-12.463C68.964,171.941,74.763,171.895,77.353,175.314z"/>
				<path style="opacity:0.0213;fill:#E88742;" d="M77.317,175.341c2.577,3.413,0.963,8.961-3.602,12.413
					c-4.55,3.462-10.334,3.497-12.921,0.087c-2.571-3.399-0.956-8.958,3.603-12.409C68.965,171.983,74.738,171.938,77.317,175.341z"
					/>
				<path style="opacity:0.0248;fill:#E88641;" d="M77.281,175.369c2.565,3.398,0.959,8.922-3.586,12.359
					c-4.53,3.446-10.289,3.482-12.865,0.086c-2.56-3.385-0.952-8.919,3.587-12.355C68.965,172.025,74.713,171.98,77.281,175.369z"/>
				<path style="opacity:0.0284;fill:#E88541;" d="M77.245,175.396c2.554,3.382,0.955,8.883-3.57,12.304
					c-4.51,3.432-10.244,3.466-12.808,0.086c-2.548-3.37-0.948-8.879,3.572-12.3C68.966,172.067,74.688,172.022,77.245,175.396z"/>
				<path style="opacity:0.0319;fill:#E98440;" d="M77.209,175.423c2.543,3.368,0.951,8.844-3.554,12.251
					c-4.49,3.415-10.199,3.45-12.752,0.085c-2.538-3.355-0.944-8.84,3.556-12.246C68.966,172.109,74.664,172.064,77.209,175.423z"/>
				<path style="opacity:0.0355;fill:#E98340;" d="M77.173,175.451c2.531,3.353,0.946,8.805-3.539,12.196
					c-4.47,3.4-10.154,3.436-12.695,0.085c-2.526-3.34-0.94-8.801,3.54-12.191C68.967,172.151,74.639,172.106,77.173,175.451z"/>
				<path style="opacity:0.039;fill:#E98240;" d="M77.137,175.478c2.52,3.337,0.942,8.766-3.523,12.142
					c-4.45,3.385-10.108,3.42-12.639,0.084c-2.515-3.325-0.936-8.762,3.524-12.137C68.967,172.193,74.614,172.148,77.137,175.478z"
					/>
				<path style="opacity:0.0426;fill:#E9813F;" d="M77.101,175.505c2.509,3.323,0.938,8.727-3.507,12.087
					c-4.431,3.37-10.063,3.405-12.583,0.084c-2.504-3.311-0.932-8.723,3.508-12.083C68.967,172.235,74.589,172.191,77.101,175.505z"
					/>
				<path style="opacity:0.0461;fill:#E9803F;" d="M77.064,175.533c2.497,3.308,0.934,8.688-3.492,12.034
					c-4.411,3.354-10.018,3.39-12.526,0.083c-2.493-3.295-0.927-8.684,3.493-12.028C68.968,172.277,74.564,172.233,77.064,175.533z"
					/>
				<path style="opacity:0.0496;fill:#E97F3E;" d="M77.029,175.56c2.486,3.293,0.929,8.649-3.477,11.979
					c-4.391,3.34-9.973,3.374-12.469,0.083c-2.482-3.28-0.924-8.645,3.477-11.974C68.968,172.319,74.54,172.275,77.029,175.56z"/>
				<path style="opacity:0.0532;fill:#EA7E3E;" d="M76.993,175.587c2.475,3.278,0.925,8.61-3.46,11.925
					c-4.371,3.324-9.928,3.358-12.413,0.083c-2.471-3.267-0.92-8.606,3.461-11.921C68.969,172.361,74.515,172.317,76.993,175.587z"
					/>
				<path style="opacity:0.0567;fill:#EA7D3E;" d="M76.956,175.615c2.464,3.263,0.921,8.57-3.445,11.872
					c-4.351,3.309-9.883,3.343-12.356,0.082c-2.459-3.252-0.916-8.567,3.445-11.867C68.969,172.403,74.49,172.359,76.956,175.615z"
					/>
				<path style="opacity:0.0603;fill:#EA7C3D;" d="M76.921,175.642c2.452,3.248,0.917,8.531-3.43,11.817
					c-4.331,3.294-9.837,3.328-12.299,0.082c-2.448-3.236-0.912-8.528,3.429-11.812C68.97,172.445,74.465,172.402,76.921,175.642z"
					/>
				<path style="opacity:0.0638;fill:#EA7B3D;" d="M76.885,175.669c2.441,3.233,0.912,8.492-3.414,11.764
					c-4.312,3.278-9.792,3.313-12.243,0.081c-2.437-3.222-0.907-8.489,3.413-11.758C68.97,172.487,74.44,172.444,76.885,175.669z"/>
				<path style="opacity:0.0674;fill:#EA7A3C;" d="M76.849,175.696c2.43,3.219,0.908,8.453-3.398,11.709
					c-4.291,3.264-9.747,3.297-12.187,0.081c-2.426-3.207-0.903-8.45,3.397-11.704C68.97,172.529,74.415,172.486,76.849,175.696z"/>
				<path style="opacity:0.0709;fill:#EA793C;" d="M76.813,175.724c2.419,3.204,0.904,8.414-3.382,11.655
					c-4.271,3.248-9.702,3.281-12.13,0.08c-2.415-3.192-0.899-8.411,3.382-11.649C68.971,172.571,74.391,172.528,76.813,175.724z"/>
				<path style="opacity:0.0745;fill:#EB783C;" d="M76.777,175.751c2.407,3.188,0.899,8.375-3.367,11.601
					c-4.252,3.233-9.657,3.267-12.074,0.08c-2.403-3.177-0.895-8.372,3.366-11.595C68.971,172.613,74.366,172.57,76.777,175.751z"/>
				<path style="opacity:0.078;fill:#EB773B;" d="M76.741,175.778c2.396,3.174,0.895,8.336-3.351,11.547
					c-4.232,3.218-9.612,3.251-12.017,0.079c-2.393-3.162-0.892-8.333,3.35-11.54C68.972,172.655,74.341,172.612,76.741,175.778z"/>
				<path style="opacity:0.0816;fill:#EB763B;" d="M76.705,175.806c2.384,3.159,0.891,8.297-3.335,11.492
					c-4.212,3.203-9.566,3.236-11.96,0.079c-2.381-3.147-0.887-8.294,3.334-11.486C68.972,172.697,74.316,172.655,76.705,175.806z"
					/>
				<path style="opacity:0.0851;fill:#EB753A;" d="M76.669,175.833c2.373,3.144,0.887,8.258-3.32,11.439
					c-4.191,3.188-9.521,3.22-11.903,0.079c-2.371-3.134-0.883-8.255,3.318-11.433C68.973,172.739,74.291,172.697,76.669,175.833z"
					/>
				<path style="opacity:0.0887;fill:#EB743A;" d="M76.633,175.86c2.362,3.129,0.882,8.219-3.304,11.384
					c-4.172,3.173-9.476,3.205-11.847,0.079c-2.359-3.118-0.879-8.216,3.302-11.379C68.973,172.781,74.266,172.739,76.633,175.86z"
					/>
				<path style="opacity:0.0922;fill:#EB733A;" d="M76.597,175.888c2.351,3.114,0.878,8.179-3.289,11.33
					c-4.152,3.157-9.431,3.189-11.79,0.078c-2.348-3.104-0.875-8.177,3.287-11.325C68.973,172.823,74.241,172.781,76.597,175.888z"
					/>
				<path style="opacity:0.0957;fill:#EC7239;" d="M76.561,175.915c2.339,3.099,0.874,8.14-3.273,11.275
					c-4.132,3.142-9.386,3.175-11.734,0.078c-2.337-3.089-0.871-8.138,3.271-11.27C68.974,172.865,74.217,172.823,76.561,175.915z"
					/>
				<path style="opacity:0.0993;fill:#EC7139;" d="M76.525,175.942c2.328,3.084,0.869,8.101-3.257,11.222
					c-4.112,3.126-9.341,3.159-11.678,0.077c-2.326-3.073-0.867-8.099,3.255-11.216C68.974,172.907,74.192,172.866,76.525,175.942z"
					/>
				<path style="opacity:0.1028;fill:#EC7038;" d="M76.489,175.97c2.316,3.069,0.865,8.062-3.242,11.167
					c-4.092,3.111-9.295,3.144-11.621,0.077c-2.314-3.059-0.863-8.06,3.239-11.162C68.975,172.949,74.167,172.908,76.489,175.97z"/>
				<path style="opacity:0.1064;fill:#EC6F38;" d="M76.453,175.997c2.305,3.054,0.861,8.023-3.226,11.114
					c-4.072,3.096-9.25,3.128-11.564,0.076c-2.303-3.044-0.858-8.02,3.224-11.107C68.975,172.991,74.142,172.95,76.453,175.997z"/>
				<path style="opacity:0.1099;fill:#EC6E38;" d="M76.416,176.024c2.294,3.039,0.857,7.983-3.21,11.059
					c-4.053,3.081-9.205,3.113-11.508,0.076c-2.292-3.029-0.855-7.981,3.207-11.053C68.976,173.033,74.117,172.992,76.416,176.024z"
					/>
				<path style="opacity:0.1135;fill:#EC6D37;" d="M76.381,176.052c2.282,3.024,0.853,7.944-3.195,11.005
					c-4.033,3.066-9.16,3.098-11.451,0.075c-2.281-3.014-0.851-7.942,3.191-10.999C68.976,173.075,74.092,173.034,76.381,176.052z"
					/>
				<path style="opacity:0.117;fill:#ED6C37;" d="M76.345,176.079c2.271,3.009,0.848,7.905-3.179,10.951
					c-4.013,3.05-9.115,3.082-11.394,0.075c-2.27-3-0.847-7.904,3.176-10.945C68.977,173.117,74.067,173.077,76.345,176.079z"/>
				<path style="opacity:0.1206;fill:#ED6B36;" d="M76.309,176.106c2.26,2.994,0.844,7.866-3.163,10.896
					c-3.993,3.035-9.07,3.066-11.338,0.075c-2.259-2.985-0.843-7.865,3.16-10.891C68.977,173.159,74.043,173.119,76.309,176.106z"/>
				<path style="opacity:0.1241;fill:#ED6A36;" d="M76.272,176.134c2.249,2.979,0.84,7.827-3.147,10.843
					c-3.973,3.02-9.024,3.051-11.282,0.074c-2.248-2.971-0.838-7.826,3.144-10.837C68.977,173.201,74.018,173.161,76.272,176.134z"
					/>
				<path style="opacity:0.1277;fill:#ED6936;" d="M76.237,176.16c2.237,2.966,0.836,7.788-3.132,10.789
					c-3.953,3.005-8.979,3.036-11.225,0.074c-2.236-2.955-0.834-7.787,3.128-10.782C68.978,173.243,73.993,173.203,76.237,176.16z"
					/>
				<path style="opacity:0.1312;fill:#ED6835;" d="M76.201,176.188c2.226,2.95,0.831,7.749-3.116,10.735
					c-3.934,2.989-8.935,3.021-11.169,0.073c-2.225-2.94-0.83-7.748,3.112-10.729C68.978,173.285,73.968,173.245,76.201,176.188z"/>
				<path style="opacity:0.1348;fill:#ED6735;" d="M76.165,176.215c2.215,2.936,0.827,7.71-3.101,10.681
					c-3.914,2.975-8.889,3.006-11.112,0.073c-2.214-2.926-0.826-7.709,3.097-10.674C68.979,173.327,73.943,173.288,76.165,176.215z"
					/>
				<path style="opacity:0.1383;fill:#EE6635;" d="M76.128,176.242c2.204,2.921,0.823,7.671-3.085,10.627
					c-3.894,2.959-8.844,2.99-11.056,0.072c-2.203-2.91-0.822-7.67,3.081-10.619C68.979,173.369,73.919,173.33,76.128,176.242z"/>
				<path style="opacity:0.1418;fill:#EE6534;" d="M76.093,176.27c2.192,2.905,0.818,7.632-3.07,10.572
					c-3.874,2.944-8.798,2.975-10.999,0.072c-2.192-2.895-0.818-7.63,3.065-10.565C68.979,173.411,73.894,173.372,76.093,176.27z"/>
				<path style="opacity:0.1454;fill:#EE6434;" d="M76.057,176.297c2.181,2.891,0.814,7.593-3.054,10.518
					c-3.854,2.929-8.753,2.959-10.942,0.071c-2.181-2.881-0.814-7.591,3.049-10.511C68.979,173.453,73.869,173.414,76.057,176.297z"
					/>
				<path style="opacity:0.1489;fill:#EE6333;" d="M76.021,176.324c2.169,2.876,0.81,7.554-3.038,10.464
					c-3.834,2.914-8.708,2.944-10.886,0.071c-2.17-2.866-0.81-7.552,3.033-10.457C68.98,173.495,73.844,173.456,76.021,176.324z"/>
				<path style="opacity:0.1525;fill:#EE6233;" d="M75.985,176.352c2.158,2.86,0.805,7.515-3.023,10.41
					c-3.814,2.898-8.663,2.929-10.829,0.071c-2.159-2.852-0.806-7.514,3.018-10.403C68.98,173.537,73.819,173.498,75.985,176.352z"
					/>
				<path style="opacity:0.156;fill:#EE6133;" d="M75.949,176.379c2.147,2.846,0.801,7.476-3.007,10.355
					c-3.794,2.883-8.618,2.914-10.773,0.071c-2.147-2.837-0.802-7.475,3.002-10.349C68.981,173.579,73.794,173.54,75.949,176.379z"
					/>
				<path style="opacity:0.1596;fill:#EF6032;" d="M75.913,176.406c2.136,2.831,0.797,7.437-2.991,10.302
					c-3.774,2.867-8.573,2.898-10.716,0.07c-2.136-2.822-0.798-7.436,2.986-10.295C68.981,173.621,73.77,173.583,75.913,176.406z"/>
				<path style="opacity:0.1631;fill:#EF5F32;" d="M75.877,176.434c2.124,2.815,0.793,7.396-2.976,10.247
					c-3.754,2.853-8.527,2.883-10.66,0.07c-2.125-2.808-0.793-7.396,2.97-10.24C68.982,173.663,73.745,173.625,75.877,176.434z"/>
				<path style="opacity:0.1667;fill:#EF5E31;" d="M75.841,176.461c2.113,2.801,0.788,7.357-2.96,10.193
					c-3.735,2.837-8.482,2.867-10.604,0.069c-2.114-2.792-0.79-7.357,2.954-10.187C68.982,173.705,73.72,173.667,75.841,176.461z"/>
				<path style="opacity:0.1702;fill:#EF5D31;" d="M75.805,176.488c2.102,2.786,0.784,7.318-2.944,10.14
					c-3.715,2.821-8.438,2.852-10.547,0.068c-2.103-2.777-0.786-7.318,2.938-10.132C68.983,173.747,73.695,173.709,75.805,176.488z"
					/>
				<path style="opacity:0.1738;fill:#EF5C31;" d="M75.769,176.516c2.09,2.771,0.78,7.279-2.929,10.085
					c-3.695,2.807-8.392,2.837-10.49,0.068c-2.092-2.763-0.782-7.279,2.922-10.077C68.983,173.789,73.67,173.751,75.769,176.516z"/>
				<path style="opacity:0.1773;fill:#F05B30;" d="M75.732,176.543c2.079,2.756,0.776,7.24-2.913,10.031
					c-3.675,2.791-8.347,2.82-10.434,0.067c-2.081-2.748-0.778-7.24,2.906-10.023C68.983,173.831,73.646,173.794,75.732,176.543z"/>
				<path style="opacity:0.1809;fill:#F05A30;" d="M75.697,176.57c2.067,2.741,0.771,7.201-2.897,9.977
					c-3.655,2.776-8.302,2.806-10.377,0.067c-2.069-2.732-0.774-7.201,2.891-9.969C68.984,173.873,73.621,173.836,75.697,176.57z"/>
				<path style="opacity:0.1844;fill:#F0592F;" d="M75.661,176.598c2.057,2.725,0.767,7.162-2.882,9.923
					c-3.635,2.761-8.256,2.79-10.32,0.067c-2.058-2.719-0.77-7.163,2.875-9.916C68.984,173.915,73.596,173.878,75.661,176.598z"/>
				<path style="opacity:0.1879;fill:#F0582F;" d="M75.624,176.625c2.045,2.711,0.763,7.123-2.866,9.868
					c-3.616,2.746-8.211,2.775-10.264,0.067c-2.047-2.704-0.765-7.124,2.859-9.861C68.985,173.956,73.571,173.92,75.624,176.625z"/>
				<path style="opacity:0.1915;fill:#F0572F;" d="M75.589,176.652c2.034,2.696,0.758,7.084-2.851,9.814
					c-3.596,2.73-8.166,2.76-10.207,0.066c-2.036-2.689-0.761-7.085,2.843-9.807C68.985,173.999,73.546,173.962,75.589,176.652z"/>
				<path style="opacity:0.195;fill:#F0562E;" d="M75.553,176.68c2.023,2.681,0.754,7.045-2.835,9.76
					c-3.576,2.716-8.121,2.744-10.151,0.066c-2.024-2.674-0.757-7.045,2.828-9.753C68.986,174.04,73.521,174.004,75.553,176.68z"/>
				<path style="opacity:0.1986;fill:#F1552E;" d="M75.517,176.707c2.011,2.666,0.75,7.005-2.819,9.706
					c-3.556,2.7-8.076,2.729-10.094,0.065c-2.014-2.659-0.753-7.006,2.812-9.698C68.986,174.083,73.497,174.046,75.517,176.707z"/>
				<path style="opacity:0.2021;fill:#F1542D;" d="M75.48,176.734c2,2.651,0.746,6.966-2.803,9.651
					c-3.536,2.686-8.031,2.714-10.038,0.066c-2.002-2.645-0.749-6.967,2.796-9.645C68.986,174.124,73.472,174.089,75.48,176.734z"/>
				<path style="opacity:0.2057;fill:#F1532D;" d="M75.445,176.762c1.988,2.636,0.741,6.927-2.788,9.598
					c-3.516,2.67-7.985,2.698-9.981,0.064c-1.992-2.629-0.745-6.928,2.78-9.59C68.987,174.167,73.447,174.131,75.445,176.762z"/>
				<path style="opacity:0.2092;fill:#F1522D;" d="M75.409,176.788c1.977,2.622,0.737,6.889-2.772,9.544
					c-3.496,2.655-7.94,2.684-9.924,0.064c-1.98-2.614-0.741-6.889,2.764-9.535C68.987,174.208,73.422,174.173,75.409,176.788z"/>
				<path style="opacity:0.2128;fill:#F1512C;" d="M75.373,176.815c1.966,2.607,0.733,6.85-2.756,9.49
					c-3.477,2.64-7.896,2.668-9.868,0.063c-1.969-2.6-0.737-6.85,2.748-9.481C68.988,174.251,73.397,174.215,75.373,176.815z"/>
				<path style="opacity:0.2163;fill:#F1502C;" d="M75.336,176.843c1.955,2.593,0.729,6.811-2.741,9.436
					c-3.457,2.625-7.85,2.652-9.812,0.063c-1.958-2.585-0.733-6.811,2.732-9.427C68.988,174.292,73.372,174.257,75.336,176.843z"/>
				<path style="opacity:0.2199;fill:#F24F2B;" d="M75.301,176.87c1.943,2.577,0.724,6.771-2.726,9.382
					c-3.437,2.608-7.805,2.637-9.755,0.063c-1.947-2.57-0.729-6.772,2.717-9.374C68.989,174.335,73.347,174.3,75.301,176.87z"/>
				<path style="opacity:0.2234;fill:#F24E2B;" d="M75.265,176.898c1.932,2.563,0.72,6.732-2.709,9.328
					c-3.417,2.593-7.76,2.621-9.699,0.063c-1.936-2.556-0.725-6.733,2.701-9.319C68.989,174.376,73.322,174.342,75.265,176.898z"/>
				<path style="opacity:0.227;fill:#F24D2B;" d="M75.229,176.925c1.921,2.548,0.716,6.693-2.694,9.273
					c-3.397,2.578-7.714,2.607-9.642,0.063c-1.924-2.541-0.721-6.694,2.685-9.265C68.989,174.419,73.298,174.384,75.229,176.925z"/>
				<path style="opacity:0.2305;fill:#F24C2A;" d="M75.193,176.952c1.909,2.532,0.711,6.654-2.679,9.22
					c-3.377,2.563-7.669,2.591-9.585,0.061c-1.913-2.525-0.716-6.655,2.669-9.211C68.99,174.46,73.273,174.426,75.193,176.952z"/>
				<path style="opacity:0.234;fill:#F24B2A;" d="M75.157,176.98c1.898,2.518,0.707,6.614-2.663,9.165
					c-3.357,2.548-7.625,2.575-9.529,0.062c-1.902-2.511-0.713-6.616,2.653-9.156C68.99,174.502,73.248,174.468,75.157,176.98z"/>
				<path style="opacity:0.2376;fill:#F24A29;" d="M75.121,177.007c1.892,2.499,0.703,6.575-2.647,9.111
					c-3.337,2.532-7.579,2.56-9.472,0.061c-1.891-2.496-0.708-6.577,2.637-9.102C68.991,174.544,73.228,174.507,75.121,177.007z"/>
				<path style="opacity:0.2411;fill:#F34929;" d="M75.085,177.034c1.875,2.487,0.699,6.536-2.631,9.057
					c-3.317,2.518-7.534,2.545-9.416,0.061c-1.88-2.481-0.705-6.538,2.622-9.048C68.991,174.586,73.198,174.553,75.085,177.034z"/>
				<path style="opacity:0.2447;fill:#F34829;" d="M75.049,177.061c1.869,2.469,0.694,6.497-2.616,9.003
					c-3.298,2.502-7.489,2.529-9.359,0.059c-1.869-2.466-0.701-6.499,2.605-8.993C68.992,174.628,73.179,174.591,75.049,177.061z"/>
				<path style="opacity:0.2482;fill:#F34728;" d="M75.013,177.089c1.858,2.454,0.69,6.458-2.6,8.948
					c-3.278,2.487-7.443,2.515-9.303,0.06c-1.858-2.451-0.696-6.46,2.59-8.939C68.992,174.67,73.154,174.633,75.013,177.089z"/>
				<path style="opacity:0.2518;fill:#F34628;" d="M74.977,177.116c1.842,2.442,0.686,6.419-2.585,8.895
					c-3.257,2.472-7.398,2.498-9.246,0.06c-1.847-2.438-0.692-6.421,2.574-8.886C68.992,174.712,73.124,174.679,74.977,177.116z"/>
				<path style="opacity:0.2553;fill:#F34527;" d="M74.94,177.144c1.831,2.428,0.682,6.38-2.569,8.84
					c-3.237,2.457-7.353,2.483-9.189,0.06c-1.835-2.423-0.688-6.382,2.559-8.832C68.993,174.754,73.099,174.722,74.94,177.144z"/>
				<path style="opacity:0.2589;fill:#F34427;" d="M74.905,177.171c1.824,2.409,0.677,6.341-2.553,8.786
					c-3.218,2.441-7.308,2.468-9.133,0.059c-1.824-2.407-0.684-6.343,2.542-8.777C68.993,174.796,73.08,174.76,74.905,177.171z"/>
				<path style="opacity:0.2624;fill:#F44327;" d="M74.869,177.198c1.813,2.394,0.673,6.302-2.538,8.732
					c-3.198,2.427-7.263,2.453-9.077,0.059c-1.813-2.393-0.68-6.304,2.527-8.723C68.994,174.838,73.054,174.802,74.869,177.198z"/>
				<path style="opacity:0.266;fill:#F44226;" d="M74.832,177.226c1.801,2.379,0.669,6.263-2.522,8.678
					c-3.178,2.411-7.217,2.438-9.02,0.058c-1.802-2.378-0.676-6.265,2.511-8.669C68.994,174.88,73.029,174.844,74.832,177.226z"/>
				<path style="opacity:0.2695;fill:#F44126;" d="M74.796,177.253c1.79,2.364,0.664,6.223-2.506,8.623
					c-3.158,2.396-7.172,2.422-8.963,0.058c-1.791-2.363-0.672-6.226,2.495-8.614C68.995,174.922,73.004,174.886,74.796,177.253z"/>
				<path style="opacity:0.2731;fill:#F44025;" d="M74.761,177.28c1.779,2.349,0.66,6.184-2.491,8.569
					c-3.138,2.381-7.127,2.406-8.907,0.057c-1.78-2.348-0.668-6.187,2.479-8.561C68.995,174.964,72.98,174.929,74.761,177.28z"/>
				<path style="opacity:0.2766;fill:#F43F25;" d="M74.725,177.308c1.767,2.334,0.656,6.145-2.475,8.515
					c-3.118,2.366-7.082,2.392-8.85,0.057c-1.768-2.333-0.664-6.148,2.463-8.506C68.995,175.006,72.955,174.971,74.725,177.308z"/>
				<path style="opacity:0.2801;fill:#F43E25;" d="M74.688,177.335c1.756,2.319,0.652,6.105-2.459,8.461
					c-3.099,2.351-7.037,2.376-8.794,0.056c-1.757-2.318-0.66-6.108,2.447-8.451C68.996,175.048,72.93,175.013,74.688,177.335z"/>
				<path style="opacity:0.2837;fill:#F53D24;" d="M74.653,177.362c1.745,2.304,0.647,6.066-2.444,8.407
					c-3.079,2.334-6.992,2.36-8.737,0.056c-1.746-2.304-0.656-6.07,2.432-8.398C68.996,175.09,72.906,175.055,74.653,177.362z"/>
				<path style="opacity:0.2872;fill:#F53C24;" d="M74.617,177.39c1.733,2.289,0.643,6.027-2.428,8.353
					c-3.059,2.319-6.946,2.345-8.681,0.056c-1.735-2.289-0.652-6.031,2.416-8.344C68.997,175.132,72.88,175.097,74.617,177.39z"/>
				<path style="opacity:0.2908;fill:#F53B23;" d="M74.581,177.417c1.722,2.274,0.639,5.988-2.412,8.299
					c-3.039,2.304-6.902,2.329-8.625,0.055c-1.724-2.274-0.647-5.992,2.4-8.29C68.997,175.174,72.855,175.139,74.581,177.417z"/>
				<path style="opacity:0.2943;fill:#F53A23;" d="M74.544,177.443c1.712,2.261,0.635,5.95-2.396,8.245
					c-3.019,2.289-6.856,2.314-8.568,0.055c-1.712-2.26-0.644-5.953,2.384-8.235C68.998,175.216,72.831,175.181,74.544,177.443z"/>
				<path style="opacity:0.2979;fill:#F53923;" d="M74.509,177.471c1.7,2.245,0.63,5.911-2.381,8.191
					c-2.999,2.273-6.811,2.299-8.511,0.054c-1.702-2.244-0.64-5.914,2.368-8.181C68.998,175.258,72.807,175.223,74.509,177.471z"/>
				<path style="opacity:0.3014;fill:#F53822;" d="M74.473,177.498c1.689,2.229,0.626,5.872-2.365,8.137
					c-2.979,2.259-6.766,2.284-8.455,0.054c-1.69-2.23-0.636-5.875,2.352-8.127C68.998,175.3,72.782,175.266,74.473,177.498z"/>
				<path style="opacity:0.305;fill:#F63722;" d="M74.437,177.525c1.678,2.216,0.622,5.832-2.35,8.083
					c-2.959,2.243-6.721,2.269-8.398,0.053c-1.679-2.215-0.631-5.836,2.336-8.072C68.998,175.342,72.757,175.308,74.437,177.525z"/>
				<path style="opacity:0.3085;fill:#F63621;" d="M74.4,177.553c1.666,2.2,0.618,5.793-2.334,8.028
					c-2.939,2.229-6.675,2.253-8.341,0.053c-1.669-2.2-0.627-5.796,2.321-8.019C68.999,175.384,72.732,175.35,74.4,177.553z"/>
				<path style="opacity:0.3121;fill:#F63521;" d="M74.365,177.58c1.655,2.185,0.613,5.754-2.319,7.975
					c-2.919,2.213-6.63,2.237-8.285,0.052c-1.657-2.184-0.624-5.757,2.305-7.964C68.999,175.426,72.707,175.392,74.365,177.58z"/>
				<path style="opacity:0.3156;fill:#F63421;" d="M74.329,177.607c1.644,2.17,0.609,5.715-2.303,7.92
					c-2.9,2.198-6.586,2.223-8.229,0.052c-1.646-2.17-0.619-5.718,2.289-7.909C69,175.468,72.683,175.434,74.329,177.607z"/>
				<path style="opacity:0.3191;fill:#F63320;" d="M74.293,177.635c1.632,2.155,0.605,5.676-2.287,7.866
					c-2.88,2.183-6.54,2.207-8.172,0.052c-1.635-2.156-0.615-5.68,2.273-7.856C69.001,175.51,72.657,175.476,74.293,177.635z"/>
				<path style="opacity:0.3227;fill:#F63220;" d="M74.257,177.662c1.621,2.14,0.6,5.637-2.272,7.812
					c-2.86,2.168-6.495,2.192-8.115,0.052c-1.623-2.141-0.611-5.641,2.258-7.802C69.001,175.552,72.633,175.519,74.257,177.662z"/>
				<path style="opacity:0.3262;fill:#F7311F;" d="M74.221,177.689c1.61,2.125,0.596,5.598-2.256,7.758
					c-2.84,2.152-6.45,2.176-8.059,0.051c-1.612-2.126-0.607-5.602,2.242-7.748C69.002,175.594,72.608,175.561,74.221,177.689z"/>
				<path style="opacity:0.3298;fill:#F7301F;" d="M74.185,177.717c1.599,2.11,0.592,5.559-2.24,7.703
					c-2.82,2.138-6.404,2.161-8.002,0.051c-1.602-2.111-0.603-5.563,2.226-7.693C69.002,175.636,72.584,175.603,74.185,177.717z"/>
				<path style="opacity:0.3333;fill:#F72F1F;" d="M74.148,177.744c1.587,2.096,0.588,5.52-2.225,7.65
					c-2.8,2.122-6.359,2.145-7.945,0.05c-1.59-2.097-0.599-5.523,2.21-7.639C69.002,175.678,72.559,175.645,74.148,177.744z"/>
				<path style="opacity:0.3369;fill:#F72E1E;" d="M74.113,177.771c1.576,2.08,0.583,5.48-2.209,7.596
					c-2.781,2.106-6.314,2.13-7.889,0.049c-1.579-2.081-0.595-5.484,2.194-7.585C69.002,175.72,72.534,175.687,74.113,177.771z"/>
				<path style="opacity:0.3404;fill:#F72D1E;" d="M74.077,177.799c1.564,2.064,0.579,5.441-2.193,7.541
					c-2.761,2.092-6.269,2.115-7.833,0.049c-1.568-2.066-0.591-5.445,2.178-7.53C69.003,175.762,72.509,175.73,74.077,177.799z"/>
				<path style="opacity:0.344;fill:#F82C1D;" d="M74.04,177.826c1.553,2.05,0.575,5.401-2.178,7.487
					c-2.741,2.075-6.224,2.099-7.776,0.048c-1.557-2.052-0.587-5.406,2.163-7.477C69.003,175.804,72.484,175.771,74.04,177.826z"/>
				<path style="opacity:0.3475;fill:#F82B1D;" d="M74.004,177.854c1.542,2.035,0.571,5.362-2.162,7.433
					c-2.721,2.061-6.179,2.084-7.72,0.048c-1.545-2.037-0.583-5.367,2.146-7.422C69.004,175.846,72.459,175.814,74.004,177.854z"/>
				<path style="opacity:0.3511;fill:#F82A1D;" d="M73.969,177.881c1.531,2.02,0.566,5.323-2.146,7.379
					c-2.701,2.045-6.134,2.068-7.663,0.048c-1.534-2.022-0.579-5.329,2.131-7.368C69.004,175.888,72.434,175.856,73.969,177.881z"/>
				<path style="opacity:0.3546;fill:#F8291C;" d="M73.933,177.908c1.52,2.005,0.562,5.284-2.131,7.324
					c-2.681,2.03-6.088,2.054-7.607,0.048c-1.523-2.008-0.574-5.29,2.115-7.314C69.005,175.93,72.409,175.898,73.933,177.908z"/>
				<path style="opacity:0.3582;fill:#F8281C;" d="M73.896,177.936c1.508,1.99,0.558,5.245-2.115,7.271
					c-2.662,2.015-6.043,2.038-7.55,0.047c-1.512-1.993-0.57-5.251,2.099-7.26C69.005,175.972,72.385,175.94,73.896,177.936z"/>
				<path style="opacity:0.3617;fill:#F8271B;" d="M73.86,177.963c1.497,1.976,0.554,5.206-2.099,7.216
					c-2.642,2-5.998,2.023-7.493,0.047c-1.501-1.979-0.567-5.211,2.083-7.206C69.005,176.014,72.36,175.982,73.86,177.963z"/>
				<path style="opacity:0.3652;fill:#F9261B;" d="M73.825,177.99c1.485,1.96,0.549,5.167-2.084,7.162
					c-2.622,1.984-5.953,2.007-7.437,0.046c-1.49-1.963-0.563-5.172,2.067-7.151C69.006,176.056,72.335,176.024,73.825,177.99z"/>
				<path style="opacity:0.3688;fill:#F9251B;" d="M73.789,178.018c1.474,1.945,0.545,5.128-2.068,7.107
					c-2.602,1.97-5.907,1.992-7.38,0.046c-1.479-1.948-0.559-5.133,2.052-7.097C69.006,176.098,72.31,176.066,73.789,178.018z"/>
				<path style="opacity:0.3723;fill:#F9241A;" d="M73.752,178.045c1.463,1.93,0.541,5.089-2.052,7.054
					c-2.582,1.954-5.863,1.977-7.324,0.045c-1.468-1.934-0.554-5.094,2.036-7.043C69.007,176.14,72.285,176.108,73.752,178.045z"/>
				<path style="opacity:0.3759;fill:#F9231A;" d="M73.717,178.071c1.452,1.916,0.536,5.05-2.037,7
					c-2.562,1.939-5.817,1.962-7.267,0.045c-1.456-1.918-0.55-5.055,2.02-6.988C69.007,176.182,72.261,176.15,73.717,178.071z"/>
				<path style="opacity:0.3794;fill:#F9221A;" d="M73.681,178.099c1.441,1.901,0.532,5.011-2.021,6.946
					c-2.542,1.924-5.772,1.946-7.211,0.044c-1.445-1.903-0.546-5.016,2.004-6.934C69.008,176.224,72.236,176.192,73.681,178.099z"/>
				<path style="opacity:0.383;fill:#F92119;" d="M73.645,178.126c1.43,1.887,0.528,4.972-2.005,6.892
					c-2.522,1.909-5.727,1.931-7.154,0.044c-1.434-1.889-0.542-4.976,1.988-6.88C69.008,176.266,72.212,176.235,73.645,178.126z"/>
				<path style="opacity:0.3865;fill:#FA2019;" d="M73.608,178.153c1.419,1.871,0.523,4.933-1.99,6.838
					c-2.502,1.894-5.682,1.915-7.098,0.044c-1.423-1.875-0.538-4.939,1.973-6.826C69.008,176.308,72.187,176.277,73.608,178.153z"/>
				<path style="opacity:0.3901;fill:#FA1F18;" d="M73.573,178.181c1.407,1.856,0.519,4.894-1.975,6.784
					c-2.482,1.878-5.636,1.9-7.041,0.043c-1.412-1.859-0.534-4.899,1.957-6.772C69.009,176.35,72.162,176.319,73.573,178.181z"/>
				<path style="opacity:0.3936;fill:#FA1E18;" d="M73.537,178.208c1.396,1.842,0.515,4.855-1.958,6.73
					c-2.463,1.863-5.592,1.885-6.984,0.043c-1.401-1.845-0.53-4.86,1.94-6.718C69.009,176.392,72.137,176.361,73.537,178.208z"/>
				<path style="opacity:0.3972;fill:#FA1D18;" d="M73.501,178.235c1.384,1.826,0.511,4.815-1.943,6.676
					c-2.443,1.848-5.546,1.869-6.928,0.042c-1.39-1.83-0.526-4.821,1.925-6.663C69.01,176.434,72.112,176.403,73.501,178.235z"/>
				<path style="opacity:0.4007;fill:#FA1C17;" d="M73.464,178.263c1.373,1.812,0.506,4.776-1.927,6.621
					c-2.423,1.833-5.501,1.854-6.871,0.042c-1.378-1.815-0.522-4.782,1.909-6.609C69.01,176.476,72.087,176.446,73.464,178.263z"/>
				<path style="opacity:0.4043;fill:#FA1B17;" d="M73.429,178.29c1.362,1.797,0.502,4.737-1.912,6.567
					c-2.403,1.817-5.456,1.838-6.815,0.041c-1.367-1.8-0.518-4.743,1.893-6.555C69.011,176.518,72.063,176.488,73.429,178.29z"/>
				<path style="opacity:0.4078;fill:#FB1A16;" d="M73.393,178.317c1.351,1.781,0.498,4.698-1.896,6.513
					c-2.383,1.802-5.411,1.823-6.758,0.041c-1.356-1.785-0.514-4.704,1.877-6.501C69.011,176.56,72.038,176.53,73.393,178.317z"/>
				<path style="opacity:0.4113;fill:#FB1916;" d="M73.356,178.345c1.339,1.767,0.494,4.658-1.88,6.459
					c-2.363,1.786-5.366,1.808-6.702,0.04c-1.345-1.771-0.51-4.665,1.862-6.446C69.011,176.602,72.013,176.572,73.356,178.345z"/>
				<path style="opacity:0.4149;fill:#FB1816;" d="M73.321,178.372c1.328,1.752,0.489,4.619-1.865,6.404
					c-2.344,1.771-5.321,1.793-6.646,0.04c-1.333-1.755-0.505-4.626,1.846-6.392C69.012,176.644,71.988,176.614,73.321,178.372z"/>
				<path style="opacity:0.4184;fill:#FB1715;" d="M73.285,178.399c1.317,1.736,0.485,4.58-1.849,6.351
					c-2.323,1.756-5.275,1.776-6.589,0.04c-1.323-1.741-0.502-4.587,1.83-6.339C69.012,176.686,71.963,176.657,73.285,178.399z"/>
				<path style="opacity:0.422;fill:#FB1615;" d="M73.248,178.427c1.306,1.722,0.481,4.541-1.833,6.296
					c-2.303,1.741-5.23,1.762-6.532,0.04c-1.312-1.727-0.498-4.548,1.814-6.284C69.013,176.727,71.938,176.699,73.248,178.427z"/>
				<path style="opacity:0.4255;fill:#FB1514;" d="M73.212,178.454c1.294,1.707,0.477,4.502-1.818,6.242
					c-2.283,1.726-5.185,1.746-6.475,0.039c-1.301-1.712-0.494-4.509,1.798-6.23C69.013,176.77,71.914,176.741,73.212,178.454z"/>
				<path style="opacity:0.4291;fill:#FC1414;" d="M73.177,178.481c1.283,1.691,0.472,4.463-1.802,6.188
					c-2.264,1.711-5.14,1.732-6.419,0.039c-1.29-1.696-0.49-4.47,1.782-6.176C69.014,176.811,71.889,176.783,73.177,178.481z"/>
				<path style="opacity:0.4326;fill:#FC1314;" d="M73.141,178.509c1.271,1.677,0.468,4.424-1.787,6.134
					c-2.244,1.695-5.095,1.716-6.362,0.038c-1.278-1.682-0.485-4.431,1.767-6.121C69.014,176.854,71.864,176.825,73.141,178.509z"/>
				<path style="opacity:0.4362;fill:#FC1213;" d="M73.104,178.536c1.26,1.662,0.464,4.385-1.771,6.079
					c-2.224,1.681-5.049,1.7-6.306,0.038c-1.267-1.667-0.481-4.392,1.751-6.067C69.014,176.895,71.839,176.868,73.104,178.536z"/>
				<path style="opacity:0.4397;fill:#FC1113;" d="M73.068,178.564c1.249,1.646,0.459,4.346-1.755,6.025
					c-2.204,1.665-5.004,1.685-6.249,0.037c-1.256-1.652-0.477-4.353,1.735-6.013C69.015,176.938,71.814,176.91,73.068,178.564z"/>
				<path style="opacity:0.4433;fill:#FC1012;" d="M73.033,178.591c1.237,1.632,0.455,4.307-1.74,5.971
					c-2.184,1.65-4.959,1.67-6.193,0.037c-1.245-1.637-0.473-4.313,1.719-5.959C69.015,176.98,71.79,176.952,73.033,178.591z"/>
				<path style="opacity:0.4468;fill:#FC0F12;" d="M72.997,178.618c1.226,1.617,0.451,4.267-1.724,5.917
					c-2.164,1.635-4.914,1.654-6.136,0.036c-1.233-1.622-0.469-4.274,1.704-5.904C69.016,177.021,71.765,176.994,72.997,178.618z"/>
				<path style="opacity:0.4504;fill:#FD0E12;" d="M72.96,178.645c1.215,1.602,0.447,4.228-1.708,5.863
					c-2.145,1.619-4.869,1.639-6.08,0.036c-1.222-1.608-0.462-4.232,1.688-5.851C69.02,177.067,71.739,177.036,72.96,178.645z"/>
				<path style="opacity:0.4539;fill:#FD0D11;" d="M72.924,178.673c1.204,1.587,0.442,4.188-1.692,5.809
					c-2.125,1.605-4.824,1.623-6.023,0.036c-1.211-1.594-0.461-4.197,1.671-5.797C69.017,177.105,71.715,177.079,72.924,178.673z"/>
				<path style="opacity:0.4574;fill:#FD0C11;" d="M72.889,178.7c1.192,1.572,0.438,4.149-1.677,5.755
					c-2.104,1.589-4.778,1.607-5.966,0.035c-1.2-1.578-0.454-4.153,1.656-5.742C69.021,177.152,71.69,177.12,72.889,178.7z"/>
				<path style="opacity:0.461;fill:#FD0B10;" d="M72.853,178.727c1.182,1.558,0.434,4.111-1.661,5.701
					c-2.085,1.574-4.733,1.593-5.91,0.035c-1.189-1.564-0.453-4.119,1.64-5.689C69.017,177.189,71.666,177.162,72.853,178.727z"/>
				<path style="opacity:0.4645;fill:#FD0A10;" d="M72.816,178.754c1.17,1.542,0.43,4.072-1.646,5.647
					c-2.065,1.559-4.688,1.577-5.854,0.034c-1.178-1.549-0.445-4.075,1.624-5.634C69.021,177.236,71.641,177.204,72.816,178.754z"/>
				<path style="opacity:0.4681;fill:#FD0910;" d="M72.781,178.781c1.159,1.527,0.425,4.033-1.63,5.593
					c-2.045,1.544-4.643,1.563-5.797,0.034c-1.167-1.533-0.441-4.036,1.608-5.579C69.022,177.278,71.616,177.246,72.781,178.781z"/>
				<path style="opacity:0.4716;fill:#FE080F;" d="M72.745,178.809c1.147,1.513,0.421,3.994-1.614,5.539
					c-2.025,1.527-4.598,1.547-5.741,0.033c-1.155-1.519-0.437-3.998,1.592-5.525C69.022,177.319,71.591,177.288,72.745,178.809z"/>
				<path style="opacity:0.4752;fill:#FE070F;" d="M72.709,178.836c1.136,1.497,0.416,3.955-1.599,5.484
					c-2.005,1.513-4.553,1.531-5.684,0.033c-1.144-1.504-0.433-3.957,1.577-5.471C69.022,177.362,71.566,177.331,72.709,178.836z"/>
				<path style="opacity:0.4787;fill:#FE060E;" d="M72.672,178.863c1.125,1.482,0.413,3.916-1.583,5.431
					c-1.985,1.497-4.507,1.516-5.628,0.032c-1.133-1.489-0.429-3.919,1.561-5.417C69.023,177.403,71.541,177.373,72.672,178.863z"/>
				<path style="opacity:0.4823;fill:#FE050E;" d="M72.637,178.891c1.114,1.468,0.408,3.876-1.568,5.376
					c-1.965,1.482-4.459,1.499-5.571,0.032c-1.119-1.476-0.425-3.879,1.546-5.362C69.023,177.446,71.517,177.415,72.637,178.891z"/>
				<path style="opacity:0.4858;fill:#FE040E;" d="M72.601,178.918c1.103,1.452,0.404,3.837-1.552,5.322
					c-1.946,1.467-4.417,1.485-5.514,0.032c-1.111-1.46-0.421-3.841,1.529-5.309C69.024,177.488,71.492,177.457,72.601,178.918z"/>
				<path style="opacity:0.4894;fill:#FE030D;" d="M72.564,178.945c1.091,1.438,0.399,3.798-1.536,5.268
					c-1.926,1.452-4.372,1.471-5.457,0.032c-1.1-1.445-0.417-3.802,1.513-5.255C69.024,177.53,71.467,177.499,72.564,178.945z"/>
				<path style="opacity:0.4929;fill:#FF020D;" d="M72.528,178.973c1.08,1.423,0.396,3.759-1.521,5.214
					c-1.906,1.437-4.327,1.454-5.401,0.031c-1.089-1.431-0.413-3.763,1.498-5.2C69.025,177.572,71.442,177.542,72.528,178.973z"/>
				<path style="opacity:0.4965;fill:#FF010C;" d="M72.493,179c1.068,1.407,0.391,3.72-1.505,5.159
					c-1.886,1.422-4.279,1.438-5.345,0.031c-1.075-1.417-0.409-3.724,1.481-5.146C69.025,177.614,71.418,177.584,72.493,179z"/>
				<path style="opacity:0.5;fill:#FF000C;" d="M72.456,179.027c1.05,1.398,0.387,3.681-1.489,5.105
					c-1.866,1.406-4.236,1.424-5.288,0.03c-1.066-1.4-0.408-3.689,1.466-5.092C69.022,177.651,71.385,177.632,72.456,179.027z"/>
			</g>
			<g style="opacity:0.3;">
				<path style="opacity:0;fill:#E78D44;" d="M168.148,163.422c-0.6,4.352-5.803,7.201-11.615,6.395
					c-5.82-0.784-10.043-4.957-9.443-9.313c0.605-4.329,5.805-7.189,11.619-6.386C164.523,154.927,168.75,159.087,168.148,163.422z"
					/>
				<path style="opacity:0.0035;fill:#E78C44;" d="M168.104,163.415c-0.597,4.334-5.778,7.171-11.565,6.368
					c-5.796-0.781-10-4.936-9.403-9.273c0.602-4.311,5.78-7.159,11.569-6.359C164.494,154.956,168.702,159.099,168.104,163.415z"/>
				<path style="opacity:0.0071;fill:#E78B43;" d="M168.059,163.41c-0.595,4.315-5.753,7.14-11.517,6.34
					c-5.771-0.777-9.957-4.914-9.362-9.233c0.601-4.292,5.755-7.128,11.52-6.331C164.465,154.987,168.655,159.111,168.059,163.41z"
					/>
				<path style="opacity:0.0106;fill:#E88A43;" d="M168.014,163.403c-0.592,4.297-5.729,7.109-11.467,6.313
					c-5.746-0.774-9.914-4.893-9.322-9.193c0.598-4.274,5.73-7.098,11.471-6.305C164.436,155.017,168.607,159.124,168.014,163.403z"
					/>
				<path style="opacity:0.0142;fill:#E88942;" d="M167.97,163.398c-0.59,4.278-5.704,7.078-11.418,6.286
					c-5.722-0.771-9.872-4.873-9.282-9.154c0.595-4.256,5.706-7.067,11.421-6.277C164.406,155.047,168.561,159.136,167.97,163.398z"
					/>
				<path style="opacity:0.0177;fill:#E88842;" d="M167.925,163.391c-0.587,4.26-5.68,7.048-11.369,6.259
					c-5.696-0.768-9.828-4.852-9.241-9.114c0.592-4.237,5.681-7.037,11.371-6.25C164.377,155.077,168.513,159.148,167.925,163.391z"
					/>
				<path style="opacity:0.0213;fill:#E88742;" d="M167.88,163.385c-0.585,4.241-5.655,7.017-11.319,6.231
					c-5.671-0.765-9.786-4.831-9.202-9.074c0.59-4.219,5.657-7.006,11.322-6.223C164.348,155.107,168.466,159.16,167.88,163.385z"/>
				<path style="opacity:0.0248;fill:#E88641;" d="M167.835,163.379c-0.582,4.223-5.63,6.986-11.27,6.204
					c-5.646-0.762-9.743-4.81-9.162-9.035c0.588-4.201,5.633-6.976,11.274-6.196C164.317,155.137,168.418,159.172,167.835,163.379z"
					/>
				<path style="opacity:0.0284;fill:#E88541;" d="M167.79,163.373c-0.579,4.204-5.605,6.956-11.221,6.177
					c-5.621-0.758-9.7-4.789-9.121-8.995c0.585-4.183,5.607-6.945,11.224-6.169C164.288,155.167,168.371,159.185,167.79,163.373z"/>
				<path style="opacity:0.0319;fill:#E98440;" d="M167.745,163.367c-0.576,4.186-5.58,6.925-11.171,6.149
					c-5.597-0.755-9.657-4.767-9.081-8.955c0.582-4.164,5.583-6.915,11.174-6.142C164.259,155.197,168.323,159.197,167.745,163.367z
					"/>
				<path style="opacity:0.0355;fill:#E98340;" d="M167.7,163.361c-0.574,4.167-5.556,6.894-11.121,6.122
					c-5.572-0.752-9.615-4.747-9.041-8.915c0.579-4.146,5.559-6.885,11.124-6.115C164.229,155.227,168.276,159.209,167.7,163.361z"
					/>
				<path style="opacity:0.039;fill:#E98240;" d="M167.656,163.355c-0.572,4.148-5.532,6.863-11.073,6.095
					c-5.547-0.749-9.571-4.726-9-8.876c0.577-4.127,5.533-6.855,11.074-6.088C164.2,155.257,168.229,159.221,167.656,163.355z"/>
				<path style="opacity:0.0426;fill:#E9813F;" d="M167.611,163.349c-0.569,4.129-5.507,6.833-11.023,6.068
					c-5.522-0.746-9.529-4.705-8.96-8.836c0.574-4.109,5.509-6.824,11.025-6.061C164.171,155.287,168.182,159.233,167.611,163.349z"
					/>
				<path style="opacity:0.0461;fill:#E9803F;" d="M167.566,163.342c-0.567,4.111-5.482,6.802-10.974,6.04
					c-5.498-0.742-9.486-4.683-8.92-8.796c0.571-4.091,5.483-6.793,10.975-6.034C164.142,155.317,168.134,159.246,167.566,163.342z"
					/>
				<path style="opacity:0.0496;fill:#E97F3E;" d="M167.521,163.336c-0.564,4.093-5.458,6.771-10.924,6.014
					c-5.474-0.739-9.444-4.662-8.88-8.757c0.568-4.073,5.459-6.763,10.926-6.007C164.112,155.347,168.087,159.258,167.521,163.336z"
					/>
				<path style="opacity:0.0532;fill:#EA7E3E;" d="M167.477,163.33c-0.562,4.074-5.433,6.74-10.875,5.986
					c-5.448-0.736-9.4-4.641-8.839-8.717c0.566-4.054,5.435-6.732,10.876-5.98C164.083,155.377,168.039,159.27,167.477,163.33z"/>
				<path style="opacity:0.0567;fill:#EA7D3E;" d="M167.432,163.324c-0.559,4.055-5.408,6.71-10.825,5.959
					c-5.424-0.732-9.358-4.62-8.799-8.677c0.563-4.036,5.409-6.702,10.827-5.953C164.054,155.407,167.992,159.282,167.432,163.324z"
					/>
				<path style="opacity:0.0603;fill:#EA7C3D;" d="M167.387,163.318c-0.557,4.037-5.383,6.679-10.775,5.932
					c-5.399-0.729-9.315-4.599-8.759-8.638c0.561-4.018,5.385-6.672,10.777-5.926C164.024,155.437,167.944,159.294,167.387,163.318z
					"/>
				<path style="opacity:0.0638;fill:#EA7B3D;" d="M167.343,163.311c-0.555,4.018-5.359,6.649-10.728,5.905
					c-5.373-0.726-9.272-4.578-8.719-8.598c0.559-3.999,5.361-6.641,10.729-5.898C163.995,155.467,167.897,159.307,167.343,163.311z
					"/>
				<path style="opacity:0.0674;fill:#EA7A3C;" d="M167.298,163.306c-0.552,4-5.335,6.618-10.678,5.877
					c-5.349-0.723-9.23-4.557-8.679-8.559c0.557-3.981,5.336-6.611,10.679-5.872C163.966,155.497,167.85,159.319,167.298,163.306z"
					/>
				<path style="opacity:0.0709;fill:#EA793C;" d="M167.253,163.299c-0.55,3.981-5.31,6.587-10.628,5.85
					c-5.324-0.719-9.188-4.536-8.639-8.518c0.554-3.962,5.312-6.581,10.629-5.844C163.936,155.527,167.803,159.331,167.253,163.299z
					"/>
				<path style="opacity:0.0745;fill:#EB783C;" d="M167.208,163.294c-0.547,3.962-5.285,6.556-10.579,5.823
					c-5.299-0.716-9.143-4.515-8.598-8.479c0.551-3.944,5.287-6.55,10.58-5.817C163.907,155.557,167.755,159.343,167.208,163.294z"
					/>
				<path style="opacity:0.078;fill:#EB773B;" d="M167.163,163.287c-0.544,3.944-5.26,6.525-10.529,5.796
					c-5.274-0.713-9.102-4.494-8.558-8.439c0.548-3.926,5.262-6.52,10.53-5.79C163.877,155.587,167.708,159.355,167.163,163.287z"/>
				<path style="opacity:0.0816;fill:#EB763B;" d="M167.118,163.281c-0.541,3.925-5.235,6.495-10.479,5.768
					c-5.25-0.71-9.059-4.473-8.518-8.399c0.546-3.908,5.237-6.489,10.48-5.763C163.848,155.617,167.66,159.368,167.118,163.281z"/>
				<path style="opacity:0.0851;fill:#EB753A;" d="M167.073,163.275c-0.539,3.907-5.211,6.464-10.431,5.741
					c-5.225-0.706-9.016-4.452-8.477-8.36c0.543-3.889,5.213-6.458,10.431-5.735C163.818,155.647,167.613,159.38,167.073,163.275z"
					/>
				<path style="opacity:0.0887;fill:#EB743A;" d="M167.029,163.269c-0.537,3.888-5.187,6.433-10.382,5.714
					c-5.2-0.703-8.973-4.431-8.437-8.321c0.54-3.871,5.188-6.428,10.381-5.708C163.789,155.677,167.565,159.393,167.029,163.269z"/>
				<path style="opacity:0.0922;fill:#EB733A;" d="M166.984,163.263c-0.534,3.87-5.162,6.403-10.332,5.687
					c-5.176-0.7-8.931-4.41-8.396-8.281c0.537-3.852,5.163-6.398,10.332-5.682C163.76,155.707,167.519,159.405,166.984,163.263z"/>
				<path style="opacity:0.0957;fill:#EC7239;" d="M166.939,163.256c-0.531,3.851-5.137,6.372-10.283,5.66
					c-5.15-0.697-8.887-4.388-8.355-8.241c0.535-3.834,5.139-6.367,10.282-5.654C163.73,155.737,167.471,159.417,166.939,163.256z"
					/>
				<path style="opacity:0.0993;fill:#EC7139;" d="M166.895,163.251c-0.529,3.832-5.112,6.341-10.233,5.632
					c-5.126-0.693-8.845-4.368-8.315-8.202c0.532-3.815,5.113-6.337,10.232-5.628C163.701,155.767,167.424,159.429,166.895,163.251z
					"/>
				<path style="opacity:0.1028;fill:#EC7038;" d="M166.85,163.244c-0.526,3.814-5.088,6.311-10.184,5.605
					c-5.102-0.69-8.802-4.347-8.275-8.162c0.529-3.797,5.089-6.306,10.183-5.6C163.672,155.797,167.376,159.441,166.85,163.244z"/>
				<path style="opacity:0.1064;fill:#EC6F38;" d="M166.805,163.238c-0.523,3.795-5.063,6.28-10.135,5.578
					c-5.075-0.687-8.759-4.325-8.235-8.122c0.527-3.779,5.065-6.276,10.135-5.573C163.643,155.827,167.329,159.454,166.805,163.238z
					"/>
				<path style="opacity:0.1099;fill:#EC6E38;" d="M166.76,163.232c-0.521,3.777-5.038,6.249-10.085,5.551
					c-5.051-0.684-8.716-4.304-8.195-8.083c0.525-3.761,5.04-6.245,10.085-5.546C163.613,155.857,167.281,159.466,166.76,163.232z"
					/>
				<path style="opacity:0.1135;fill:#EC6D37;" d="M166.716,163.226c-0.52,3.758-5.015,6.218-10.036,5.523
					c-5.026-0.681-8.674-4.283-8.155-8.043c0.522-3.742,5.016-6.215,10.035-5.519C163.584,155.887,167.234,159.478,166.716,163.226z
					"/>
				<path style="opacity:0.117;fill:#ED6C37;" d="M166.671,163.22c-0.517,3.739-4.989,6.188-9.987,5.497
					c-5.001-0.678-8.63-4.262-8.114-8.003c0.52-3.724,4.991-6.185,9.985-5.492C163.555,155.917,167.186,159.49,166.671,163.22z"/>
				<path style="opacity:0.1206;fill:#ED6B36;" d="M166.626,163.214c-0.514,3.721-4.965,6.157-9.938,5.469
					c-4.977-0.674-8.588-4.241-8.074-7.963c0.517-3.705,4.966-6.154,9.935-5.465C163.525,155.947,167.14,159.502,166.626,163.214z"
					/>
				<path style="opacity:0.1241;fill:#ED6A36;" d="M166.581,163.208c-0.512,3.702-4.939,6.126-9.888,5.442
					c-4.952-0.671-8.545-4.22-8.034-7.924c0.515-3.688,4.941-6.124,9.887-5.438C163.496,155.977,167.092,159.515,166.581,163.208z"
					/>
				<path style="opacity:0.1277;fill:#ED6936;" d="M166.536,163.202c-0.509,3.684-4.915,6.095-9.838,5.414
					c-4.928-0.668-8.503-4.199-7.994-7.884c0.512-3.669,4.916-6.093,9.837-5.411C163.466,156.007,167.045,159.527,166.536,163.202z"
					/>
				<path style="opacity:0.1312;fill:#ED6835;" d="M166.491,163.195c-0.506,3.665-4.891,6.065-9.789,5.387
					c-4.902-0.664-8.459-4.178-7.953-7.844c0.509-3.651,4.892-6.063,9.787-5.384C163.436,156.037,166.997,159.539,166.491,163.195z"
					/>
				<path style="opacity:0.1348;fill:#ED6735;" d="M166.446,163.189c-0.504,3.646-4.865,6.034-9.739,5.36
					c-4.878-0.661-8.417-4.157-7.913-7.805c0.506-3.632,4.867-6.032,9.737-5.356C163.407,156.067,166.95,159.551,166.446,163.189z"
					/>
				<path style="opacity:0.1383;fill:#EE6635;" d="M166.402,163.183c-0.502,3.628-4.842,6.003-9.69,5.333
					c-4.854-0.658-8.374-4.136-7.873-7.765c0.504-3.614,4.842-6.002,9.688-5.33C163.378,156.097,166.902,159.564,166.402,163.183z"
					/>
				<path style="opacity:0.1418;fill:#EE6534;" d="M166.357,163.177c-0.499,3.609-4.816,5.973-9.642,5.306
					c-4.828-0.655-8.331-4.115-7.832-7.726c0.501-3.596,4.817-5.972,9.639-5.302C163.349,156.127,166.855,159.576,166.357,163.177z"
					/>
				<path style="opacity:0.1454;fill:#EE6434;" d="M166.313,163.171c-0.496,3.591-4.792,5.942-9.592,5.278
					c-4.804-0.651-8.288-4.094-7.792-7.686c0.498-3.577,4.793-5.941,9.589-5.275C163.319,156.157,166.808,159.588,166.313,163.171z"
					/>
				<path style="opacity:0.1489;fill:#EE6333;" d="M166.268,163.165c-0.494,3.572-4.768,5.912-9.542,5.251
					c-4.778-0.648-8.246-4.073-7.753-7.646c0.496-3.559,4.768-5.911,9.54-5.249C163.29,156.187,166.761,159.6,166.268,163.165z"/>
				<path style="opacity:0.1525;fill:#EE6233;" d="M166.223,163.159c-0.491,3.553-4.742,5.88-9.493,5.224
					c-4.753-0.645-8.202-4.052-7.712-7.606c0.494-3.541,4.744-5.88,9.49-5.221C163.261,156.217,166.713,159.612,166.223,163.159z"/>
				<path style="opacity:0.156;fill:#EE6133;" d="M166.178,163.152c-0.488,3.535-4.718,5.85-9.443,5.197
					c-4.729-0.642-8.16-4.031-7.672-7.567c0.491-3.522,4.72-5.85,9.441-5.194C163.231,156.247,166.666,159.624,166.178,163.152z"/>
				<path style="opacity:0.1596;fill:#EF6032;" d="M166.133,163.146c-0.485,3.516-4.692,5.819-9.393,5.169
					c-4.704-0.639-8.117-4.009-7.632-7.527c0.488-3.504,4.694-5.819,9.392-5.167C163.202,156.277,166.618,159.637,166.133,163.146z"
					/>
				<path style="opacity:0.1631;fill:#EF5F32;" d="M166.089,163.14c-0.484,3.498-4.669,5.789-9.346,5.143
					c-4.679-0.635-8.074-3.989-7.591-7.487c0.485-3.486,4.67-5.789,9.342-5.14C163.173,156.307,166.571,159.649,166.089,163.14z"/>
				<path style="opacity:0.1667;fill:#EF5E31;" d="M166.044,163.134c-0.481,3.479-4.645,5.758-9.296,5.115
					c-4.654-0.632-8.031-3.968-7.551-7.448c0.483-3.467,4.645-5.758,9.292-5.113C163.144,156.337,166.523,159.661,166.044,163.134z"
					/>
				<path style="opacity:0.1702;fill:#EF5D31;" d="M165.999,163.128c-0.479,3.46-4.619,5.727-9.246,5.088
					c-4.63-0.629-7.988-3.946-7.511-7.408c0.48-3.449,4.62-5.728,9.243-5.086C163.114,156.367,166.476,159.673,165.999,163.128z"/>
				<path style="opacity:0.1738;fill:#EF5C31;" d="M165.954,163.122c-0.477,3.442-4.595,5.696-9.197,5.061
					c-4.604-0.626-7.945-3.925-7.47-7.368c0.478-3.431,4.596-5.698,9.193-5.059C163.085,156.397,166.429,159.686,165.954,163.122z"
					/>
				<path style="opacity:0.1773;fill:#F05B30;" d="M165.909,163.116c-0.474,3.423-4.57,5.666-9.147,5.034
					c-4.58-0.622-7.902-3.904-7.43-7.329c0.475-3.413,4.571-5.667,9.144-5.032C163.055,156.427,166.381,159.698,165.909,163.116z"/>
				<path style="opacity:0.1809;fill:#F05A30;" d="M165.864,163.11c-0.471,3.405-4.545,5.635-9.098,5.006
					c-4.556-0.62-7.86-3.883-7.39-7.289c0.473-3.394,4.546-5.637,9.094-5.005C163.025,156.457,166.334,159.71,165.864,163.11z"/>
				<path style="opacity:0.1844;fill:#F0592F;" d="M165.819,163.104c-0.468,3.386-4.52,5.604-9.049,4.979
					c-4.53-0.616-7.816-3.862-7.349-7.249c0.47-3.376,4.521-5.606,9.044-4.977C162.996,156.487,166.286,159.722,165.819,163.104z"/>
				<path style="opacity:0.1879;fill:#F0582F;" d="M165.775,163.097c-0.467,3.368-4.496,5.574-9,4.952
					c-4.505-0.613-7.774-3.841-7.31-7.21c0.468-3.357,4.498-5.576,8.996-4.951C162.967,156.517,166.239,159.734,165.775,163.097z"/>
				<path style="opacity:0.1915;fill:#F0572F;" d="M165.73,163.091c-0.464,3.349-4.472,5.543-8.95,4.925
					c-4.48-0.61-7.731-3.82-7.27-7.17c0.465-3.339,4.473-5.545,8.946-4.923C162.938,156.547,166.191,159.747,165.73,163.091z"/>
				<path style="opacity:0.195;fill:#F0562E;" d="M165.686,163.085c-0.461,3.33-4.447,5.512-8.901,4.897
					c-4.455-0.606-7.688-3.799-7.229-7.13c0.463-3.321,4.448-5.515,8.896-4.896C162.908,156.577,166.145,159.759,165.686,163.085z"
					/>
				<path style="opacity:0.1986;fill:#F1552E;" d="M165.641,163.079c-0.458,3.312-4.422,5.481-8.852,4.87
					c-4.431-0.603-7.645-3.778-7.188-7.09c0.46-3.303,4.424-5.485,8.847-4.869C162.879,156.607,166.097,159.771,165.641,163.079z"/>
				<path style="opacity:0.2021;fill:#F1542D;" d="M165.596,163.073c-0.456,3.293-4.398,5.451-8.802,4.843
					c-4.406-0.6-7.604-3.757-7.148-7.051c0.457-3.284,4.398-5.454,8.798-4.842C162.85,156.637,166.05,159.783,165.596,163.073z"/>
				<path style="opacity:0.2057;fill:#F1532D;" d="M165.551,163.067c-0.453,3.274-4.372,5.42-8.753,4.816
					c-4.381-0.597-7.56-3.736-7.107-7.011c0.454-3.266,4.374-5.424,8.748-4.815C162.82,156.667,166.002,159.795,165.551,163.067z"/>
				<path style="opacity:0.2092;fill:#F1522D;" d="M165.506,163.061c-0.45,3.256-4.348,5.389-8.703,4.789
					c-4.356-0.593-7.517-3.715-7.067-6.971c0.452-3.247,4.35-5.393,8.698-4.788C162.791,156.697,165.955,159.808,165.506,163.061z"
					/>
				<path style="opacity:0.2128;fill:#F1512C;" d="M165.462,163.055c-0.449,3.237-4.324,5.358-8.654,4.761
					c-4.332-0.59-7.475-3.694-7.027-6.932c0.449-3.229,4.324-5.363,8.648-4.761C162.762,156.727,165.907,159.82,165.462,163.055z"/>
				<path style="opacity:0.2163;fill:#F1502C;" d="M165.417,163.048c-0.446,3.219-4.299,5.328-8.605,4.734
					c-4.308-0.587-7.433-3.673-6.987-6.892c0.446-3.211,4.3-5.332,8.599-4.734C162.732,156.757,165.86,159.832,165.417,163.048z"/>
				<path style="opacity:0.2199;fill:#F24F2B;" d="M165.372,163.042c-0.443,3.2-4.274,5.297-8.556,4.706
					c-4.282-0.583-7.389-3.651-6.946-6.852c0.443-3.192,4.274-5.302,8.55-4.707C162.703,156.787,165.813,159.844,165.372,163.042z"
					/>
				<path style="opacity:0.2234;fill:#F24E2B;" d="M165.327,163.036c-0.44,3.182-4.249,5.267-8.506,4.68
					c-4.258-0.581-7.347-3.63-6.906-6.813c0.441-3.174,4.25-5.271,8.5-4.68C162.674,156.817,165.766,159.856,165.327,163.036z"/>
				<path style="opacity:0.227;fill:#F24D2B;" d="M165.282,163.03c-0.438,3.163-4.225,5.235-8.456,4.652
					c-4.233-0.577-7.304-3.609-6.866-6.773c0.438-3.156,4.225-5.241,8.45-4.653C162.644,156.847,165.718,159.869,165.282,163.03z"/>
				<path style="opacity:0.2305;fill:#F24C2A;" d="M165.237,163.024c-0.436,3.145-4.2,5.205-8.407,4.626
					c-4.207-0.574-7.261-3.589-6.826-6.733c0.437-3.138,4.201-5.211,8.401-4.626C162.614,156.877,165.671,159.881,165.237,163.024z"
					/>
				<path style="opacity:0.234;fill:#F24B2A;" d="M165.192,163.018c-0.433,3.126-4.175,5.174-8.357,4.598
					c-4.183-0.571-7.218-3.567-6.786-6.693c0.434-3.119,4.177-5.18,8.353-4.599C162.585,156.907,165.623,159.893,165.192,163.018z"
					/>
				<path style="opacity:0.2376;fill:#F24A29;" d="M165.147,163.012c-0.431,3.107-4.15,5.144-8.308,4.571
					c-4.158-0.567-7.176-3.546-6.746-6.654c0.432-3.101,4.152-5.15,8.303-4.572C162.556,156.937,165.576,159.905,165.147,163.012z"
					/>
				<path style="opacity:0.2411;fill:#F34929;" d="M165.104,163.005c-0.429,3.089-4.126,5.113-8.26,4.544
					c-4.133-0.564-7.132-3.525-6.705-6.614c0.429-3.083,4.127-5.12,8.253-4.545C162.526,156.967,165.528,159.917,165.104,163.005z"
					/>
				<path style="opacity:0.2447;fill:#F34829;" d="M165.059,162.999c-0.426,3.07-4.102,5.082-8.21,4.516
					c-4.108-0.561-7.09-3.504-6.665-6.574c0.426-3.064,4.103-5.089,8.203-4.518C162.497,156.997,165.481,159.93,165.059,162.999z"/>
				<path style="opacity:0.2482;fill:#F34728;" d="M165.014,162.993c-0.423,3.052-4.077,5.052-8.16,4.489
					c-4.084-0.558-7.047-3.483-6.625-6.535c0.423-3.046,4.078-5.059,8.153-4.49C162.468,157.027,165.434,159.942,165.014,162.993z"
					/>
				<path style="opacity:0.2518;fill:#F34628;" d="M164.969,162.987c-0.421,3.033-4.052,5.02-8.111,4.462
					c-4.059-0.555-7.004-3.462-6.584-6.496c0.421-3.027,4.053-5.028,8.105-4.463C162.438,157.057,165.387,159.955,164.969,162.987z"
					/>
				<path style="opacity:0.2553;fill:#F34527;" d="M164.924,162.981c-0.418,3.015-4.027,4.99-8.062,4.435
					c-4.034-0.552-6.961-3.441-6.544-6.456c0.418-3.009,4.028-4.998,8.055-4.436C162.409,157.087,165.339,159.967,164.924,162.981z"
					/>
				<path style="opacity:0.2589;fill:#F34427;" d="M164.879,162.975c-0.415,2.996-4.003,4.959-8.012,4.407
					c-4.01-0.548-6.919-3.42-6.504-6.416c0.415-2.991,4.004-4.967,8.005-4.409C162.38,157.117,165.292,159.979,164.879,162.975z"/>
				<path style="opacity:0.2624;fill:#F44327;" d="M164.834,162.969c-0.412,2.978-3.978,4.929-7.963,4.38
					c-3.984-0.545-6.875-3.399-6.463-6.376c0.412-2.972,3.979-4.937,7.955-4.381C162.351,157.147,165.244,159.991,164.834,162.969z"
					/>
				<path style="opacity:0.266;fill:#F44226;" d="M164.79,162.963c-0.411,2.958-3.954,4.898-7.914,4.353
					c-3.96-0.542-6.833-3.378-6.423-6.337c0.41-2.954,3.954-4.906,7.905-4.355C162.321,157.177,165.197,160.003,164.79,162.963z"/>
				<path style="opacity:0.2695;fill:#F44126;" d="M164.745,162.956c-0.408,2.941-3.929,4.867-7.864,4.326
					c-3.936-0.538-6.79-3.356-6.383-6.297c0.407-2.936,3.93-4.876,7.856-4.328C162.292,157.207,165.149,160.016,164.745,162.956z"/>
				<path style="opacity:0.2731;fill:#F44025;" d="M164.7,162.95c-0.405,2.922-3.904,4.837-7.815,4.299
					c-3.909-0.535-6.747-3.336-6.343-6.257c0.405-2.917,3.905-4.845,7.808-4.3C162.263,157.237,165.102,160.028,164.7,162.95z"/>
				<path style="opacity:0.2766;fill:#F43F25;" d="M164.655,162.944c-0.403,2.903-3.88,4.806-7.766,4.271
					c-3.885-0.532-6.704-3.315-6.303-6.218c0.402-2.899,3.881-4.815,7.758-4.273C162.232,157.267,165.055,160.04,164.655,162.944z"
					/>
				<path style="opacity:0.2801;fill:#F43E25;" d="M164.61,162.938c-0.4,2.885-3.855,4.775-7.716,4.245
					c-3.86-0.529-6.662-3.294-6.263-6.178c0.4-2.881,3.857-4.784,7.708-4.246C162.203,157.297,165.008,160.052,164.61,162.938z"/>
				<path style="opacity:0.2837;fill:#F53D24;" d="M164.565,162.932c-0.397,2.866-3.83,4.744-7.667,4.217
					c-3.835-0.525-6.618-3.272-6.222-6.138c0.397-2.862,3.831-4.754,7.659-4.219C162.174,157.327,164.96,160.064,164.565,162.932z"
					/>
				<path style="opacity:0.2872;fill:#F53C24;" d="M164.52,162.926c-0.394,2.848-3.805,4.714-7.617,4.19
					c-3.811-0.522-6.576-3.251-6.182-6.099c0.395-2.844,3.807-4.724,7.609-4.192C162.145,157.357,164.913,160.077,164.52,162.926z"
					/>
				<path style="opacity:0.2908;fill:#F53B23;" d="M164.477,162.92c-0.394,2.829-3.781,4.683-7.568,4.163
					c-3.786-0.519-6.533-3.23-6.142-6.059c0.392-2.826,3.782-4.693,7.56-4.165C162.115,157.387,164.865,160.089,164.477,162.92z"/>
				<path style="opacity:0.2943;fill:#F53A23;" d="M164.432,162.914c-0.391,2.811-3.757,4.652-7.518,4.135
					c-3.762-0.516-6.491-3.209-6.102-6.019c0.39-2.807,3.757-4.663,7.51-4.138C162.086,157.417,164.818,160.101,164.432,162.914z"/>
				<path style="opacity:0.2979;fill:#F53923;" d="M164.387,162.908c-0.388,2.792-3.731,4.622-7.47,4.108
					c-3.736-0.512-6.447-3.188-6.061-5.979c0.387-2.789,3.732-4.632,7.46-4.111C162.057,157.447,164.77,160.113,164.387,162.908z"/>
				<path style="opacity:0.3014;fill:#F53822;" d="M164.342,162.901c-0.386,2.773-3.707,4.591-7.42,4.081
					c-3.712-0.509-6.405-3.168-6.02-5.94c0.384-2.77,3.707-4.602,7.411-4.084C162.027,157.477,164.724,160.126,164.342,162.901z"/>
				<path style="opacity:0.305;fill:#F63722;" d="M164.297,162.895c-0.383,2.754-3.682,4.56-7.37,4.054
					c-3.688-0.506-6.362-3.146-5.981-5.9c0.381-2.752,3.683-4.571,7.361-4.057C161.998,157.507,164.676,160.138,164.297,162.895z"/>
				<path style="opacity:0.3085;fill:#F63621;" d="M164.252,162.889c-0.38,2.736-3.657,4.529-7.321,4.026
					c-3.662-0.502-6.319-3.125-5.939-5.86c0.379-2.734,3.658-4.541,7.311-4.03C161.969,157.537,164.629,160.15,164.252,162.889z"/>
				<path style="opacity:0.3121;fill:#F63521;" d="M164.207,162.883c-0.377,2.717-3.633,4.499-7.271,3.999
					c-3.638-0.499-6.276-3.104-5.899-5.821c0.376-2.716,3.633-4.511,7.262-4.002C161.939,157.567,164.581,160.162,164.207,162.883z"
					/>
				<path style="opacity:0.3156;fill:#F63421;" d="M164.163,162.877c-0.376,2.699-3.608,4.468-7.223,3.972
					c-3.612-0.497-6.234-3.084-5.86-5.781c0.374-2.697,3.609-4.48,7.214-3.976C161.91,157.597,164.534,160.174,164.163,162.877z"/>
				<path style="opacity:0.3191;fill:#F63320;" d="M164.118,162.871c-0.373,2.68-3.584,4.438-7.174,3.945
					c-3.587-0.493-6.19-3.062-5.819-5.741c0.371-2.679,3.585-4.45,7.164-3.948C161.881,157.627,164.486,160.186,164.118,162.871z"/>
				<path style="opacity:0.3227;fill:#F63220;" d="M164.073,162.865c-0.37,2.662-3.559,4.407-7.124,3.917
					c-3.563-0.49-6.148-3.041-5.779-5.702c0.369-2.661,3.56-4.419,7.114-3.921C161.852,157.657,164.439,160.199,164.073,162.865z"/>
				<path style="opacity:0.3262;fill:#F7311F;" d="M164.028,162.858c-0.367,2.643-3.534,4.376-7.074,3.891
					c-3.538-0.487-6.105-3.02-5.739-5.662c0.366-2.643,3.535-4.389,7.064-3.895C161.821,157.687,164.392,160.211,164.028,162.858z"
					/>
				<path style="opacity:0.3298;fill:#F7301F;" d="M163.983,162.852c-0.365,2.625-3.51,4.345-7.025,3.863
					c-3.513-0.483-6.063-2.999-5.698-5.622c0.363-2.624,3.511-4.358,7.015-3.867C161.792,157.717,164.345,160.223,163.983,162.852z"
					/>
				<path style="opacity:0.3333;fill:#F72F1F;" d="M163.938,162.846c-0.362,2.606-3.484,4.314-6.976,3.836
					c-3.488-0.48-6.02-2.977-5.658-5.583c0.36-2.606,3.485-4.328,6.966-3.84C161.763,157.747,164.297,160.235,163.938,162.846z"/>
				<path style="opacity:0.3369;fill:#F72E1E;" d="M163.894,162.84c-0.359,2.587-3.46,4.284-6.926,3.809
					c-3.464-0.477-5.977-2.956-5.618-5.543c0.358-2.587,3.461-4.297,6.916-3.813C161.733,157.777,164.249,160.248,163.894,162.84z"
					/>
				<path style="opacity:0.3404;fill:#F72D1E;" d="M163.85,162.834c-0.358,2.569-3.436,4.253-6.878,3.782
					c-3.438-0.474-5.934-2.936-5.577-5.503c0.355-2.569,3.437-4.267,6.866-3.786C161.704,157.807,164.202,160.26,163.85,162.834z"/>
				<path style="opacity:0.344;fill:#F82C1D;" d="M163.805,162.828c-0.355,2.55-3.411,4.222-6.828,3.754
					c-3.414-0.47-5.891-2.915-5.537-5.463c0.353-2.551,3.411-4.237,6.816-3.759C161.675,157.837,164.154,160.272,163.805,162.828z"
					/>
				<path style="opacity:0.3475;fill:#F82B1D;" d="M163.76,162.822c-0.353,2.532-3.387,4.192-6.778,3.727
					c-3.39-0.467-5.849-2.893-5.497-5.424c0.35-2.533,3.387-4.206,6.768-3.732C161.645,157.867,164.107,160.284,163.76,162.822z"/>
				<path style="opacity:0.3511;fill:#F82A1D;" d="M163.715,162.816c-0.35,2.513-3.361,4.161-6.729,3.7
					c-3.364-0.464-5.805-2.872-5.456-5.384c0.348-2.514,3.362-4.176,6.718-3.704C161.616,157.897,164.06,160.296,163.715,162.816z"
					/>
				<path style="opacity:0.3546;fill:#F8291C;" d="M163.67,162.81c-0.348,2.494-3.337,4.13-6.68,3.673
					c-3.339-0.461-5.763-2.852-5.417-5.345c0.346-2.496,3.338-4.145,6.669-3.678C161.587,157.927,164.013,160.309,163.67,162.81z"/>
				<path style="opacity:0.3582;fill:#F8281C;" d="M163.625,162.804c-0.345,2.476-3.313,4.099-6.63,3.645
					c-3.314-0.458-5.72-2.83-5.377-5.305c0.343-2.477,3.313-4.115,6.619-3.651C161.558,157.957,163.965,160.321,163.625,162.804z"/>
				<path style="opacity:0.3617;fill:#F8271B;" d="M163.58,162.797c-0.342,2.457-3.287,4.069-6.581,3.618
					c-3.289-0.454-5.677-2.809-5.336-5.265c0.34-2.459,3.289-4.085,6.569-3.624C161.528,157.987,163.918,160.333,163.58,162.797z"/>
				<path style="opacity:0.3652;fill:#F9261B;" d="M163.536,162.791c-0.34,2.439-3.264,4.038-6.532,3.591
					c-3.265-0.451-5.634-2.788-5.296-5.226c0.338-2.441,3.264-4.054,6.521-3.597C161.499,158.017,163.87,160.345,163.536,162.791z"
					/>
				<path style="opacity:0.3688;fill:#F9251B;" d="M163.491,162.785c-0.338,2.42-3.238,4.007-6.482,3.563
					c-3.24-0.448-5.592-2.767-5.256-5.186c0.335-2.422,3.239-4.024,6.471-3.569C161.47,158.047,163.823,160.357,163.491,162.785z"/>
				<path style="opacity:0.3723;fill:#F9241A;" d="M163.446,162.779c-0.335,2.401-3.214,3.977-6.434,3.537
					c-3.215-0.444-5.548-2.746-5.215-5.146c0.332-2.404,3.215-3.993,6.421-3.542C161.44,158.077,163.775,160.37,163.446,162.779z"/>
				<path style="opacity:0.3759;fill:#F9231A;" d="M163.401,162.773c-0.332,2.383-3.189,3.946-6.384,3.509
					c-3.19-0.441-5.506-2.725-5.175-5.106c0.329-2.386,3.189-3.963,6.371-3.515C161.41,158.107,163.729,160.382,163.401,162.773z"/>
				<path style="opacity:0.3794;fill:#F9221A;" d="M163.356,162.767c-0.33,2.364-3.164,3.915-6.334,3.482
					c-3.166-0.438-5.463-2.704-5.135-5.067c0.327-2.368,3.165-3.933,6.322-3.488C161.381,158.137,163.681,160.394,163.356,162.767z"
					/>
				<path style="opacity:0.383;fill:#F92119;" d="M163.311,162.761c-0.327,2.346-3.14,3.884-6.284,3.455
					c-3.142-0.434-5.421-2.683-5.095-5.027c0.324-2.349,3.14-3.902,6.272-3.461C161.352,158.167,163.634,160.406,163.311,162.761z"
					/>
				<path style="opacity:0.3865;fill:#FA2019;" d="M163.267,162.754c-0.324,2.327-3.114,3.854-6.235,3.428
					c-3.116-0.432-5.377-2.662-5.054-4.987c0.321-2.331,3.115-3.872,6.223-3.434C161.322,158.197,163.586,160.419,163.267,162.754z"
					/>
				<path style="opacity:0.3901;fill:#FA1F18;" d="M163.223,162.749c-0.322,2.308-3.091,3.823-6.187,3.4
					c-3.092-0.429-5.335-2.641-5.014-4.948c0.318-2.313,3.091-3.841,6.173-3.407C161.293,158.227,163.539,160.431,163.223,162.749z"
					/>
				<path style="opacity:0.3936;fill:#FA1E18;" d="M163.178,162.742c-0.32,2.29-3.066,3.792-6.137,3.374
					c-3.067-0.425-5.292-2.62-4.974-4.908c0.316-2.294,3.065-3.811,6.123-3.38C161.264,158.257,163.491,160.443,163.178,162.742z"/>
				<path style="opacity:0.3972;fill:#FA1D18;" d="M163.133,162.736c-0.317,2.271-3.041,3.762-6.088,3.346
					c-3.041-0.422-5.249-2.599-4.934-4.868c0.314-2.276,3.042-3.78,6.075-3.353C161.234,158.287,163.444,160.455,163.133,162.736z"
					/>
				<path style="opacity:0.4007;fill:#FA1C17;" d="M163.088,162.73c-0.314,2.253-3.017,3.731-6.038,3.319
					c-3.017-0.419-5.206-2.578-4.893-4.829c0.311-2.258,3.018-3.75,6.025-3.326C161.205,158.317,163.396,160.467,163.088,162.73z"/>
				<path style="opacity:0.4043;fill:#FA1B17;" d="M163.043,162.724c-0.313,2.234-2.992,3.7-5.988,3.291
					c-2.992-0.415-5.164-2.557-4.854-4.789c0.309-2.239,2.992-3.719,5.976-3.299C161.176,158.347,163.35,160.48,163.043,162.724z"/>
				<path style="opacity:0.4078;fill:#FB1A16;" d="M162.998,162.718c-0.31,2.215-2.967,3.669-5.939,3.264
					c-2.967-0.412-5.12-2.536-4.813-4.749c0.307-2.221,2.968-3.689,5.926-3.271C161.146,158.377,163.302,160.492,162.998,162.718z"
					/>
				<path style="opacity:0.4113;fill:#FB1916;" d="M162.953,162.711c-0.307,2.197-2.942,3.639-5.89,3.237
					c-2.942-0.409-5.078-2.515-4.772-4.709c0.304-2.203,2.943-3.659,5.877-3.245C161.117,158.407,163.255,160.504,162.953,162.711z"
					/>
				<path style="opacity:0.4149;fill:#FB1816;" d="M162.909,162.706c-0.305,2.178-2.918,3.608-5.841,3.21
					c-2.918-0.406-5.035-2.494-4.732-4.67c0.301-2.185,2.918-3.628,5.827-3.218C161.088,158.437,163.207,160.516,162.909,162.706z"
					/>
				<path style="opacity:0.4184;fill:#FB1715;" d="M162.864,162.699c-0.303,2.16-2.894,3.578-5.792,3.183
					c-2.893-0.403-4.992-2.473-4.691-4.631c0.298-2.166,2.894-3.597,5.777-3.19C161.059,158.467,163.16,160.529,162.864,162.699z"/>
				<path style="opacity:0.422;fill:#FB1615;" d="M162.819,162.693c-0.3,2.141-2.869,3.547-5.742,3.155
					c-2.868-0.399-4.949-2.451-4.651-4.591c0.296-2.147,2.869-3.567,5.727-3.163C161.029,158.497,163.112,160.541,162.819,162.693z"
					/>
				<path style="opacity:0.4255;fill:#FB1514;" d="M162.774,162.687c-0.297,2.123-2.844,3.516-5.692,3.128
					c-2.844-0.396-4.907-2.431-4.611-4.551c0.293-2.129,2.844-3.537,5.678-3.136C160.999,158.527,163.065,160.553,162.774,162.687z"
					/>
				<path style="opacity:0.4291;fill:#FC1414;" d="M162.729,162.681c-0.294,2.104-2.819,3.485-5.644,3.101
					c-2.818-0.393-4.863-2.41-4.57-4.512c0.29-2.11,2.819-3.506,5.629-3.109C160.97,158.557,163.018,160.565,162.729,162.681z"/>
				<path style="opacity:0.4326;fill:#FC1314;" d="M162.685,162.675c-0.292,2.085-2.794,3.455-5.594,3.074
					c-2.794-0.389-4.821-2.388-4.53-4.472c0.287-2.092,2.795-3.476,5.579-3.082C160.94,158.587,162.971,160.578,162.685,162.675z"/>
				<path style="opacity:0.4362;fill:#FC1213;" d="M162.64,162.669c-0.289,2.067-2.77,3.424-5.544,3.046
					c-2.77-0.386-4.778-2.367-4.49-4.432c0.285-2.074,2.77-3.445,5.529-3.055C160.911,158.617,162.923,160.59,162.64,162.669z"/>
				<path style="opacity:0.4397;fill:#FC1113;" d="M162.596,162.663c-0.283,2.049-2.746,3.393-5.496,3.02
					c-2.743-0.383-4.735-2.346-4.45-4.393c0.283-2.056,2.746-3.415,5.48-3.027C160.882,158.647,162.88,160.602,162.596,162.663z"/>
				<path style="opacity:0.4433;fill:#FC1012;" d="M162.551,162.657c-0.28,2.03-2.721,3.362-5.446,2.992
					c-2.719-0.38-4.692-2.325-4.41-4.353c0.28-2.037,2.722-3.384,5.431-3.001C160.852,158.677,162.833,160.615,162.551,162.657z"/>
				<path style="opacity:0.4468;fill:#FC0F12;" d="M162.506,162.65c-0.278,2.012-2.696,3.331-5.396,2.965
					c-2.694-0.376-4.65-2.304-4.37-4.313c0.277-2.019,2.696-3.354,5.382-2.974C160.823,158.707,162.785,160.627,162.506,162.65z"/>
				<path style="opacity:0.4504;fill:#FD0E12;" d="M162.461,162.645c-0.275,1.993-2.672,3.306-5.348,2.938
					c-2.67-0.368-4.607-2.283-4.329-4.273c0.275-2,2.672-3.323,5.332-2.946C160.794,158.737,162.737,160.639,162.461,162.645z"/>
				<path style="opacity:0.4539;fill:#FD0D11;" d="M162.416,162.638c-0.276,1.974-2.647,3.276-5.298,2.911
					c-2.645-0.365-4.564-2.262-4.289-4.234c0.272-1.982,2.647-3.293,5.282-2.919C160.765,158.767,162.686,160.651,162.416,162.638z"
					/>
				<path style="opacity:0.4574;fill:#FD0C11;" d="M162.371,162.632c-0.27,1.956-2.623,3.245-5.248,2.883
					c-2.621-0.361-4.521-2.241-4.249-4.194c0.27-1.964,2.622-3.263,5.232-2.892C160.735,158.797,162.643,160.664,162.371,162.632z"
					/>
				<path style="opacity:0.461;fill:#FD0B10;" d="M162.326,162.626c-0.271,1.937-2.598,3.215-5.198,2.856
					c-2.597-0.358-4.48-2.22-4.209-4.154c0.267-1.946,2.598-3.232,5.184-2.865C160.706,158.827,162.592,160.675,162.326,162.626z"/>
				<path style="opacity:0.4645;fill:#FD0A10;" d="M162.282,162.62c-0.265,1.919-2.574,3.184-5.15,2.829
					c-2.571-0.355-4.436-2.199-4.168-4.115c0.265-1.927,2.572-3.202,5.134-2.838C160.677,158.857,162.549,160.688,162.282,162.62z"
					/>
				<path style="opacity:0.4681;fill:#FD0910;" d="M162.237,162.614c-0.263,1.9-2.55,3.154-5.101,2.802
					c-2.547-0.351-4.394-2.178-4.128-4.075c0.262-1.909,2.548-3.171,5.084-2.811C160.647,158.887,162.502,160.7,162.237,162.614z"/>
				<path style="opacity:0.4716;fill:#FE080F;" d="M162.192,162.607c-0.26,1.882-2.524,3.123-5.051,2.774
					c-2.523-0.348-4.351-2.157-4.088-4.035c0.259-1.891,2.523-3.141,5.034-2.784C160.618,158.917,162.454,160.712,162.192,162.607z"
					/>
				<path style="opacity:0.4752;fill:#FE070F;" d="M162.147,162.602c-0.258,1.863-2.5,3.092-5.002,2.747
					c-2.497-0.344-4.308-2.136-4.047-3.996c0.256-1.872,2.498-3.11,4.984-2.757C160.588,158.947,162.407,160.725,162.147,162.602z"
					/>
				<path style="opacity:0.4787;fill:#FE060E;" d="M162.102,162.595c-0.255,1.845-2.475,3.062-4.952,2.72
					c-2.473-0.341-4.265-2.115-4.007-3.956c0.254-1.854,2.474-3.08,4.936-2.73C160.559,158.977,162.358,160.737,162.102,162.595z"/>
				<path style="opacity:0.4823;fill:#FE050E;" d="M162.058,162.589c-0.252,1.826-2.45,3.031-4.902,2.692
					c-2.447-0.338-4.223-2.093-3.968-3.916c0.252-1.836,2.45-3.05,4.887-2.703C160.529,159.007,162.313,160.749,162.058,162.589z"/>
				<path style="opacity:0.4858;fill:#FE040E;" d="M162.013,162.583c-0.25,1.807-2.426,3.001-4.854,2.666
					c-2.422-0.334-4.179-2.072-3.927-3.876c0.249-1.817,2.425-3.019,4.837-2.676C160.5,159.037,162.265,160.761,162.013,162.583z"/>
				<path style="opacity:0.4894;fill:#FE030D;" d="M161.969,162.577c-0.247,1.789-2.401,2.97-4.805,2.638
					c-2.397-0.331-4.137-2.052-3.887-3.837c0.246-1.799,2.4-2.989,4.787-2.648C160.471,159.067,162.218,160.773,161.969,162.577z"/>
				<path style="opacity:0.4929;fill:#FF020D;" d="M161.924,162.571c-0.244,1.77-2.377,2.94-4.755,2.611
					c-2.373-0.328-4.094-2.031-3.847-3.797c0.244-1.781,2.376-2.958,4.738-2.622C160.441,159.097,162.17,160.786,161.924,162.571z"
					/>
				<path style="opacity:0.4965;fill:#FF010C;" d="M161.879,162.565c-0.242,1.752-2.352,2.908-4.706,2.584
					c-2.348-0.324-4.051-2.009-3.806-3.757c0.241-1.763,2.351-2.928,4.688-2.594C160.412,159.127,162.123,160.798,161.879,162.565z"
					/>
				<path style="opacity:0.5;fill:#FF000C;" d="M161.834,162.559c-0.244,1.732-2.326,2.871-4.656,2.557
					c-2.322-0.328-4.008-1.988-3.766-3.718c0.238-1.744,2.326-2.898,4.639-2.567C160.383,159.157,162.07,160.81,161.834,162.559z"/>
			</g>
			<path style="fill:#FFD8A2;" d="M82.057,150.092c2.234-2.236,4.403-3.632,7.231-4.798c-0.781-1.828-2.828-3.422-4.039-5.046
				c-3.383,0.093-6.73,5.547-7.875,8.231c-0.985,2.344-2.233,6.465-0.931,8.811C78.136,154.561,79.751,152.401,82.057,150.092z"/>
			<path style="fill:#FFD8A2;" d="M151.273,29.229c9.766,16.311,17.27,39.15,7.99,57.407c-5.488,10.799-13.695,18.795-25.123,22.866
				c-7.502,2.666-24.326,5.077-30.943,0.893L57.371,87.919c-2.679-13.884,10.445-20.646,21.537-22.275
				c12.852-1.889,22.802,2.166,35.429,2.797C135.352,69.489,158.188,52.609,151.273,29.229z"/>
			<path style="fill:#E8C493;" d="M151.273,29.229c0.504,1.594,0.85,3.154,1.092,4.681c0.834,1.972,1.768,3.913,2.397,5.755
				c1.42,4.152,2.875,8.525,3.957,12.769c1.9,7.423,2.094,18.183-1.02,25.317c-3.096,7.087-9.768,13.341-16.104,17.371
				c-7.139,4.534-16.141,6.972-24.411,6.043c-11.09-1.266-19.862-8.184-26.11-7.882c-4.439,0.219-6.196-1.513-10.293-1.799
				c-3.497-0.248,4.031,6.849,1.854,8.826l20.563,10.085c6.617,4.184,23.441,1.773,30.943-0.893
				c11.428-4.071,19.635-12.066,25.123-22.866C168.65,68.169,161.207,45.588,151.273,29.229z"/>
			<path style="fill:#FFD8A2;" d="M152.584,105.761c-3.27,2.734-14.32,3.434-17.451,3.47c-18.879,0.235-35.988-13.374-52.351-21.277
				c-11.307-5.459-24.512-10.307-37.169-7.118c-1.975,0.495-3.697,1.261-5.184,2.242c-8.039,5.303-9.163,16.852-6.237,25.828
				c-3.548-0.948-10.199,3.174-12.571,5.644c-2.542,2.64-3.076,7.021-3.068,10.481c0.019,8.772,3.739,17.61,7.483,25.381
				c4.86,10.086,10.583,21.137,20.104,27.542c-3.624-2.439-5.62-14.2-6.267-18.202c-1.027-6.305-0.968-13.402,2.961-18.778
				c11.056-15.14,26.041-12.118,41.005-11.754C105.892,129.751,142.365,123.498,152.584,105.761z"/>
			<path style="fill:#E8C493;" d="M83.838,129.22c21.784,0.526,57.644-5.564,68.361-22.827c-0.008-0.15,0.344-0.516,0.334-0.658
				c-3.197,5.117-11.793,8.265-17.426,10.196c-7.625,2.609-15.445,5.087-23.342,6.215c-10.267,1.456-20.74,3.188-31.238,3.318
				c-9.417,0.119-18.872-2.934-28.212-2.354c-9.428,0.591-16.616,8.995-17.467,18.268c-0.437,4.615-0.108,9.901,1.241,14.333
				c1.135,3.727,2.769,11.434,5.612,13.722l0.186-0.021c-1.026-3.734-1.691-7.662-2.015-9.66
				c-1.027-6.305-0.968-13.402,2.961-18.778C53.889,125.834,68.874,128.856,83.838,129.22z"/>
			<path style="opacity:0.4;fill:#FFFFFF;" d="M34.868,111.613c-5.353-1.896-11.247,4.878-12.471,9.461
				c-0.726,2.727-0.677,5.686-0.03,8.424c0.588,2.476,2.59,4.499,3.22,6.623c-1.915-6.476,1.772-15.509,7.053-19.336
				C34.506,115.422,39.095,113.107,34.868,111.613z"/>
			<path style="opacity:0.4;fill:#FFFFFF;" d="M48.708,83.843c4.165-0.422,8.643,0.173,12.614,1.591
				c5.203,1.863,10.791,4.967,14.743,8.891c-3.963-0.412-7.704-0.98-11.721-0.986c-6.217-0.021-11.064-0.729-16.86,1.782
				c-2.249,0.973-6.058,2.984-8.447,1.396C31.981,91.824,44.835,84.234,48.708,83.843z"/>
			<path style="opacity:0.4;fill:#FFFFFF;" d="M104.694,70.462c-0.624,0.214-4.036-1.38-4.794-1.568
				c-4.195-1.067-7.436-1.192-11.93-1.466c-1.655-0.104-2.906-0.187-4.617,0.019c-4.012,0.5-16.627,3.604-12.378,8.354
				c2.131,2.381,7.34,0.827,10.782-0.367C89.377,72.787,97.379,72.951,104.694,70.462z"/>
			<path style="fill:#FFD8A2;" d="M132.293,137.068c-3.051-0.813-5.631-0.937-8.651-0.529c-0.242-1.974,0.723-4.38,0.965-6.391
				c2.971-1.615,8.598,1.425,10.93,3.183c2.037,1.53,5.172,4.477,5.223,7.159C137.93,138.978,135.445,137.912,132.293,137.068z"/>
			<g>
				<path style="opacity:0.2;" d="M93.123,159.269c1.694,4.182,0.954,8.434-1.658,9.492c-2.604,1.054-6.096-1.479-7.797-5.664
					c-1.691-4.184-0.955-8.435,1.654-9.49C87.934,152.551,91.425,155.083,93.123,159.269z"/>
				<path style="fill:#40260C;" d="M91.148,158.678c1.419,3.5,1.229,6.877-0.414,7.543c-1.646,0.667-4.135-1.628-5.554-5.124
					c-1.415-3.5-1.237-6.874,0.415-7.543C87.245,152.887,89.73,155.178,91.148,158.678z"/>
				<path style="opacity:0.2;fill:#FFFFFF;" d="M88.461,156.28c0.504,1.249,0.439,2.456-0.148,2.695
					c-0.588,0.235-1.475-0.585-1.984-1.83c-0.501-1.252-0.436-2.456,0.152-2.691C87.067,154.215,87.955,155.034,88.461,156.28z"/>
			</g>
			<g>
				<path style="opacity:0.2;" d="M124.557,152.278c0.238,4.501,2.709,8.037,5.523,7.888c2.813-0.143,4.896-3.918,4.654-8.43
					c-0.236-4.509-2.705-8.046-5.518-7.902C126.41,143.991,124.322,147.766,124.557,152.278z"/>
				<path style="fill:#40260C;" d="M126.094,150.905c0.199,3.769,1.795,6.748,3.572,6.661c1.775-0.101,3.053-3.23,2.855-6.997
					c-0.197-3.773-1.797-6.751-3.572-6.662C127.168,144.003,125.891,147.136,126.094,150.905z"/>
				<path style="opacity:0.2;fill:#FFFFFF;" d="M130.521,146.64c0.178,1.335-0.184,2.485-0.811,2.57
					c-0.633,0.087-1.287-0.931-1.469-2.265c-0.182-1.334,0.184-2.485,0.811-2.568C129.682,144.29,130.338,145.304,130.521,146.64z"
					/>
			</g>
			<g>
				<path style="opacity:0.2;" d="M116.873,203.71c0,0,4.121-5.608,10.775-1.143C126.275,196.801,115.791,199.892,116.873,203.71z"
					/>
				<path style="opacity:0.2;" d="M149.041,169.664c-1.191,1.218-0.047,3.52,1.791,4.945c-0.145,0.339-0.387,1.37-1.053,2.873
					c-0.818,1.851-2.346,4.427-4.979,6.922c-2.607,2.497-6.326,4.85-10.818,6.608c-4.521,1.777-9.625,2.98-15.294,3.824
					c-5.504,0.691-10.899,0.911-15.686,0.367c-4.789-0.515-8.98-1.842-12.132-3.631c-3.159-1.767-5.247-3.907-6.482-5.509
					c-0.581-0.764-0.987-1.397-1.268-1.857c1.19-1.877,1.489-4.224,0.063-4.994c0,0,0.959,5.67-5.516,7.066
					c1.962,1.161,3.919,0.041,5.161-1.646c0.188,0.498,0.485,1.13,0.922,1.856c1.088,1.817,3.156,4.255,6.411,6.283
					c3.243,2.048,7.632,3.597,12.617,4.238c4.988,0.655,10.475,0.491,16.242-0.225c5.569-0.824,11.051-2.155,15.647-4.101
					c4.641-1.911,8.486-4.516,11.123-7.301c2.664-2.766,4.084-5.613,4.709-7.635c0.469-1.501,0.549-2.555,0.504-3.01
					c1.682,1.233,3.883,1.711,5.402,0.02C149.811,175.369,149.041,169.664,149.041,169.664z"/>
			</g>
			<g>
				<path style="opacity:0.2;fill:#FFFFFF;" d="M104.72,158.041c1-12.83-8.588-24.044-21.416-25.048
					c-12.835-1.004-24.047,8.584-25.051,21.414c-1.004,12.835,8.585,24.048,21.414,25.053
					C92.502,180.462,103.717,170.871,104.72,158.041z"/>
				<path style="opacity:0.2;fill:#FFFFFF;" d="M99.135,146.274c0.467-5.959-6.853-11.393-16.352-12.136
					c-9.493-0.74-17.57,3.487-18.034,9.446c-0.467,5.959,6.856,11.388,16.348,12.13C90.592,156.458,98.67,152.231,99.135,146.274z"
					/>
				<path style="opacity:0.2;fill:#FFFFFF;" d="M154.76,131.019c0.465-5.962-6.854-11.393-16.35-12.135
					c-9.494-0.741-17.57,3.486-18.038,9.443c-0.465,5.959,6.858,11.392,16.35,12.135
					C146.221,141.205,154.297,136.975,154.76,131.019z"/>
				<path style="fill:#755236;" d="M83.717,127.705c-15.755-1.231-29.521,10.541-30.752,26.292
					c-1.231,15.749,10.541,29.518,26.291,30.747c15.751,1.232,29.519-10.538,30.752-26.29
					C111.24,142.705,99.467,128.936,83.717,127.705z M79.668,179.46c-12.829-1.005-22.418-12.218-21.414-25.053
					c1.004-12.83,12.216-22.418,25.051-21.414c12.828,1.004,22.416,12.218,21.416,25.048
					C103.717,170.871,92.502,180.462,79.668,179.46z"/>
			</g>
			<g>
				<path style="opacity:0.2;fill:#FFFFFF;" d="M159.84,142.814c1.004-12.83-8.584-24.044-21.416-25.05
					c-12.832-1.002-24.047,8.586-25.049,21.418c-1.005,12.829,8.585,24.047,21.417,25.047
					C147.621,165.234,158.838,155.649,159.84,142.814z"/>
				<path style="fill:#755236;" d="M138.836,112.478c-15.75-1.231-29.519,10.538-30.75,26.289
					c-1.231,15.753,10.538,29.521,26.292,30.751c15.752,1.233,29.52-10.54,30.75-26.288
					C166.359,127.475,154.588,113.708,138.836,112.478z M134.791,164.229c-12.832-1-22.421-12.218-21.417-25.047
					c1.002-12.832,12.217-22.419,25.049-21.418c12.832,1.006,22.42,12.22,21.416,25.05
					C158.838,155.649,147.621,165.234,134.791,164.229z"/>
				<g>
					<path style="fill:#593F29;" d="M83.427,130.967c-12.832-1.001-24.046,8.586-25.05,21.418c-0.033,0.449-0.028,0.893-0.036,1.341
						c1.347-12.485,12.362-21.719,24.963-20.733c12.379,0.968,21.712,11.449,21.451,23.707c0.026-0.228,0.073-0.451,0.088-0.684
						C105.851,143.188,96.259,131.971,83.427,130.967z"/>
					<path style="fill:#593F29;" d="M79.381,182.722c-15.225-1.191-26.733-14.097-26.367-29.184
						c-0.016,0.153-0.035,0.303-0.049,0.459c-1.231,15.749,10.541,29.518,26.291,30.747c15.751,1.232,29.519-10.538,30.752-26.29
						c0.038-0.528,0.061-1.045,0.075-1.567C108.625,172.409,94.977,183.939,79.381,182.722z"/>
				</g>
				<g>
					<path style="fill:#593F29;" d="M138.551,115.74c-12.834-1.004-24.046,8.584-25.05,21.419c-0.036,0.449-0.028,0.893-0.036,1.337
						c1.345-12.481,12.358-21.718,24.959-20.731c12.383,0.97,21.713,11.451,21.455,23.71c0.025-0.23,0.068-0.452,0.088-0.684
						C160.969,127.957,151.379,116.744,138.551,115.74z"/>
					<path style="fill:#593F29;" d="M134.504,167.494c-15.23-1.193-26.734-14.096-26.37-29.184
						c-0.016,0.152-0.036,0.305-0.049,0.456c-1.231,15.753,10.538,29.521,26.292,30.751c15.752,1.233,29.52-10.54,30.75-26.288
						c0.043-0.524,0.066-1.048,0.078-1.567C163.744,157.182,150.102,168.712,134.504,167.494z"/>
				</g>
			</g>
			<path style="fill:#755236;" d="M112.23,142.329c0.987,3.094-0.186,6.236-2.624,7.017c-2.44,0.783-5.222-1.098-6.21-4.191
				c-0.992-3.097,0.185-6.235,2.624-7.018C108.458,137.355,111.24,139.233,112.23,142.329z"/>
			<path style="opacity:0.1;fill:#FFFFFF;" d="M109.001,141.014c0.465,1.442,0.266,2.792-0.437,3.02
				c-0.706,0.224-1.651-0.762-2.112-2.205c-0.459-1.442-0.264-2.794,0.439-3.02C107.597,138.583,108.542,139.572,109.001,141.014z"
				/>
			<path style="opacity:0.1;fill:#FFFFFF;" d="M143.188,114.34c-0.033,0.532-2.145,0.834-4.717,0.674
				c-2.574-0.158-4.633-0.718-4.598-1.249c0.031-0.535,2.145-0.836,4.719-0.676C141.162,113.249,143.221,113.807,143.188,114.34z"/>
			<path style="opacity:0.1;fill:#FFFFFF;" d="M88.778,129.671c-0.034,0.534-2.146,0.833-4.719,0.673
				c-2.57-0.157-4.632-0.717-4.599-1.249c0.033-0.533,2.146-0.835,4.72-0.676C86.752,128.58,88.811,129.137,88.778,129.671z"/>
		</g>
	</g>
	<g>
		<polygon style="opacity:0.2;" points="126.818,266.527 132.65,272.99 142.277,257.175 129.438,226.364 126.943,217.703 		"/>
		<polygon style="fill:#755236;" points="115.038,224.105 114.104,259.247 129.24,271.463 139.492,255.838 126.732,222.049 		"/>
		<polygon style="fill:#755236;" points="112.691,216.873 113.691,224.486 128.178,223.42 126.846,214.387 		"/>
		<polygon style="opacity:0.36;" points="114.952,227.316 128.27,226.119 126.951,222.627 115.02,224.725 		"/>
		<polygon style="fill:#755236;" points="111.804,218.434 112.684,225.382 129.701,223.847 128.486,215.61 		"/>
		<path style="fill:#C4895B;" d="M133.328,239.508l-18.43-10.135l-0.24,8.938l22.155,10.435L133.328,239.508z M114.462,245.733
			l-0.133,4.982l20.52,12.199l3.479-5.3L114.462,245.733z"/>
	</g>
	<path style="fill:#FF9C4B;" d="M89.605,242.279c-8.276-6.104-14.644,24.6-4.794,29.748
		C94.666,277.174,106.919,255.045,89.605,242.279z"/>
</g>
</svg>
